<svg width="120" height="120" viewBox="0 0 120 120" fill="none" xmlns="http://www.w3.org/2000/svg">
<path d="M60.0005 120C26.8398 120 0 93.1272 0 60.0005C0 26.8389 26.8352 0 60.0005 0C93.162 0 120 26.8352 120 60.0005C120 93.1593 93.1245 120 60.0005 120V120Z" fill="#EBF1FF"/>
<path d="M60.0005 -0.000923157V119.999C93.1245 119.999 120 93.1584 120 59.9995C120 26.8352 93.162 -0.000923157 60.0005 -0.000923157V-0.000923157Z" fill="#E3EBFE"/>
<path d="M60.0005 74.0621C42.5421 74.0621 25.8959 81.694 13.7303 98.1957C37.9562 127.479 82.7982 127.229 106.697 97.6729C100.796 91.8025 87.5031 74.0621 60.0005 74.0621Z" fill="#DCE7FF"/>
<path d="M106.697 97.6729C95.4142 111.625 78.4851 119.999 60.0005 119.999V74.0621C87.504 74.0621 100.796 91.8043 106.697 97.6729Z" fill="#CCDCFF"/>
<path d="M60.0005 63.2138C48.184 63.2138 38.5717 54.974 38.5717 44.8464V38.7239C38.5717 28.5962 48.184 20.3564 60.0005 20.3564C71.816 20.3564 81.4292 28.5962 81.4292 38.7239V44.8464C81.4292 54.974 71.816 63.2138 60.0005 63.2138Z" fill="#DCE7FF"/>
<path d="M60.0005 20.3564V63.2138C71.817 63.2138 81.4292 54.9748 81.4292 44.8464V38.7239C81.4292 28.5954 71.817 20.3564 60.0005 20.3564Z" fill="#CCDCFF"/>
</svg>
