<svg width="16" height="16" viewBox="0 0 16 16" fill="none" xmlns="http://www.w3.org/2000/svg">
<rect width="16" height="16" rx="4" fill="#EBF1FF"/>
<path d="M12.7792 7.704C12.7792 8.072 12.7352 8.436 12.6472 8.796C12.5592 9.156 12.4232 9.484 12.2392 9.78C12.0632 10.076 11.8392 10.312 11.5672 10.488C11.2952 10.656 10.9752 10.74 10.6072 10.74C10.3112 10.74 10.0512 10.672 9.82723 10.536C9.60323 10.392 9.44723 10.208 9.35923 9.984H9.26323C9.10323 10.184 8.88723 10.36 8.61523 10.512C8.35123 10.664 8.03123 10.74 7.65523 10.74C6.94323 10.74 6.39123 10.528 5.99923 10.104C5.61523 9.672 5.42323 9.108 5.42323 8.412C5.42323 7.876 5.53923 7.404 5.77123 6.996C6.00323 6.58 6.33123 6.256 6.75523 6.024C7.17923 5.784 7.67923 5.664 8.25523 5.664C8.63123 5.664 9.01923 5.7 9.41923 5.772C9.82723 5.836 10.1432 5.908 10.3672 5.988L10.2472 8.448C10.2392 8.528 10.2352 8.612 10.2352 8.7C10.2352 8.78 10.2352 8.832 10.2352 8.856C10.2352 9.184 10.2792 9.404 10.3672 9.516C10.4632 9.62 10.5672 9.672 10.6792 9.672C10.8632 9.672 11.0152 9.584 11.1352 9.408C11.2552 9.224 11.3432 8.984 11.3992 8.688C11.4632 8.384 11.4952 8.052 11.4952 7.692C11.4952 7.02 11.3592 6.452 11.0872 5.988C10.8152 5.516 10.4432 5.156 9.97123 4.908C9.50723 4.66 8.97523 4.536 8.37523 4.536C7.53523 4.536 6.82723 4.712 6.25123 5.064C5.68323 5.408 5.25123 5.88 4.95523 6.48C4.65923 7.08 4.51123 7.768 4.51123 8.544C4.51123 9.624 4.79923 10.452 5.37523 11.028C5.95923 11.604 6.79523 11.892 7.88323 11.892C8.34723 11.892 8.83123 11.84 9.33523 11.736C9.83923 11.632 10.2992 11.504 10.7152 11.352V12.48C10.3312 12.64 9.90323 12.768 9.43123 12.864C8.95923 12.96 8.45923 13.008 7.93123 13.008C6.93923 13.008 6.09123 12.832 5.38723 12.48C4.68323 12.128 4.14323 11.624 3.76723 10.968C3.39923 10.304 3.21523 9.508 3.21523 8.58C3.21523 7.852 3.33523 7.176 3.57523 6.552C3.81523 5.928 4.15923 5.384 4.60723 4.92C5.06323 4.448 5.60723 4.084 6.23923 3.828C6.87123 3.564 7.57923 3.432 8.36323 3.432C9.21923 3.432 9.97923 3.604 10.6432 3.948C11.3072 4.292 11.8272 4.784 12.2032 5.424C12.5872 6.064 12.7792 6.824 12.7792 7.704ZM6.77923 8.436C6.77923 8.876 6.87123 9.192 7.05523 9.384C7.23923 9.576 7.48323 9.672 7.78723 9.672C8.18723 9.672 8.46723 9.528 8.62723 9.24C8.79523 8.944 8.89523 8.56 8.92723 8.088L8.99923 6.792C8.91123 6.776 8.81123 6.764 8.69923 6.756C8.58723 6.74 8.46323 6.732 8.32723 6.732C7.95123 6.732 7.64723 6.816 7.41523 6.984C7.19123 7.144 7.02723 7.356 6.92323 7.62C6.82723 7.876 6.77923 8.148 6.77923 8.436Z" fill="#5B86E5"/>
</svg>
