<svg width="224" height="110" viewBox="0 0 224 110" fill="none" xmlns="http://www.w3.org/2000/svg">
<path opacity="0.1" d="M43.6273 103H182.665C194.191 94.7151 188.257 69.792 178.635 64.7369C168.276 59.2978 184.728 40.4871 168.764 34.3799C158.343 30.3927 141.768 34.7376 143.997 24.0751C147.086 9.28326 110.951 5.49588 84.3343 9.48315C55.5439 13.7913 81.8313 34.9849 50.1778 39.2509C33.9023 41.4497 37.0463 60.2341 38.5664 64.1109C39.8912 67.4933 48.6333 72.8535 36.4786 80.2389C18.6586 91.0697 43.2061 102.8 43.6273 103Z" fill="#9BC1F9"/>
<path d="M52.4903 76.5918C57.2378 73.1653 65.6511 71.4722 72.0813 73.6087C72.6222 72.6816 73.5837 71.8753 74.7856 71.2707C76.949 68.4085 79.7134 65.7077 83.9801 64.0952C89.6291 61.9587 98.7635 62.9665 100.506 66.9573C105.855 63.4099 116.912 64.7402 119.797 69.2551C121.059 71.2304 120.999 73.6087 123.282 75.2212C124.665 76.229 126.648 76.6724 128.751 76.9546C130.794 76.0274 133.018 75.3018 135.361 74.7778C138.366 74.0925 141.732 73.77 144.676 74.6165C149.544 76.0274 150.806 79.8974 151.467 83.2432C153.09 78.6477 163.486 76.3902 169.375 79.3733C170.457 79.9377 171.599 80.623 172.921 80.502C173.702 80.4214 174.303 80.0989 175.084 80.0183C177.007 79.7764 178.51 80.9858 179.471 82.0339C181.334 84.0091 183.137 86.0247 185 88C138.667 88 92.3333 88 46 88C46.3606 83.8076 48.1635 79.6555 52.4903 76.5918Z" fill="#BBCBEF"/>
<path d="M178.51 83.5918C173.762 80.1653 165.349 78.4722 158.919 80.6087C158.378 79.6816 157.416 78.8753 156.214 78.2707C154.051 75.4085 151.287 72.7077 147.02 71.0952C141.371 68.9587 132.236 69.9665 130.494 73.9573C125.145 70.4099 114.088 71.7402 111.203 76.2551C109.941 78.2304 110.001 80.6087 107.718 82.2212C106.335 83.229 104.352 83.6724 102.249 83.9546C100.206 83.0274 97.9823 82.3018 95.6386 81.7778C92.6338 81.0925 89.2685 80.77 86.3238 81.6165C81.4561 83.0274 80.1941 86.8974 79.5331 90.2432C77.9105 85.6477 67.514 83.3902 61.6247 86.3733C60.543 86.9377 59.4012 87.623 58.0791 87.502C57.2979 87.4214 56.6969 87.0989 55.9157 87.0183C53.9926 86.7764 52.4903 87.9858 51.5287 89.0339C49.6658 91.0091 47.8629 93.0247 46 95C92.3333 95 138.667 95 185 95C184.639 90.8076 182.837 86.6555 178.51 83.5918Z" fill="#D5E2FE"/>
<path d="M175.318 99.6595L175 99.4471C180.739 90.8056 182.491 80.5438 182.955 73.4619C183.455 65.7731 182.576 60.0566 182.57 60.002L182.961 59.8867C182.967 59.9413 183.852 65.6942 183.352 73.4316C182.888 80.5741 181.117 90.927 175.318 99.6595Z" fill="#6D8ED8"/>
<path d="M181.44 58.6545C181.428 60.3901 182.032 61.8283 183.003 62.684C183.986 61.44 184.615 59.7651 184.627 58.0295C184.639 56.2939 184.035 54.8557 183.064 54C182.081 55.238 181.452 56.9129 181.44 58.6545Z" fill="#6D8ED8"/>
<path d="M184.548 62.5565C183.571 64.0918 183.168 65.8152 183.327 67.2959C184.67 66.9136 186.019 65.8881 187.002 64.3527C187.979 62.8174 188.382 61.094 188.223 59.6133C186.88 59.9895 185.525 61.0212 184.548 62.5565Z" fill="#6D8ED8"/>
<path d="M186.117 67.2171C184.707 68.1881 183.694 69.6567 183.224 71.1798C184.463 71.5257 185.971 71.2405 187.375 70.2696C188.785 69.2986 189.798 67.83 190.269 66.3069C189.029 65.961 187.521 66.2401 186.117 67.2171Z" fill="#6D8ED8"/>
<path d="M184.279 75.3548C183.663 75.7189 183.199 76.3015 182.961 76.9326C183.467 77.1207 184.096 77.0479 184.713 76.6838C185.329 76.3197 185.793 75.7371 186.031 75.106C185.525 74.9239 184.896 74.9906 184.279 75.3548Z" fill="#6D8ED8"/>
<path d="M183.779 78.3709C183.163 78.735 182.699 79.3175 182.461 79.9486C182.967 80.1368 183.596 80.0639 184.213 79.6998C184.829 79.3357 185.293 78.7532 185.531 78.1221C185.031 77.9339 184.396 78.0068 183.779 78.3709Z" fill="#6D8ED8"/>
<path d="M181.246 66.1673C180.111 65.5301 178.786 65.5361 177.608 66.0641C177.803 67.3688 178.511 68.5218 179.647 69.159C180.782 69.7962 182.107 69.7901 183.285 69.2622C183.09 67.9574 182.382 66.8044 181.246 66.1673Z" fill="#6D8ED8"/>
<path d="M181.02 70.7066C179.884 70.0694 178.559 70.0754 177.381 70.6034C177.576 71.9081 178.285 73.0611 179.42 73.6983C180.556 74.3355 181.88 74.3294 183.059 73.8015C182.857 72.4968 182.155 71.3498 181.02 70.7066Z" fill="#6D8ED8"/>
<path d="M181.246 77.2061C180.507 76.7873 179.646 76.7934 178.877 77.1393C179.005 77.9889 179.463 78.7353 180.202 79.154C180.94 79.5728 181.801 79.5667 182.57 79.2208C182.442 78.3773 181.984 77.6248 181.246 77.2061Z" fill="#6D8ED8"/>
<path d="M65.5516 85.2926C65.5516 85.2926 72.9629 56.17 70.5026 53.2389C67.1083 49.1973 64.3062 62.6087 64.0315 61.4739C61.437 50.7145 60.7471 36.939 52.3713 35.4826C47.6095 34.6512 53.4702 45.7201 53.1161 48.7179C52.762 51.7097 44.1847 41.7756 38.9773 36.5688C33.7638 31.3621 31.0716 34.6573 34.3682 41.2052C37.5549 47.5346 47.8537 54.4526 45.7293 55.2779C43.6048 56.1033 30.7175 47.923 29.1364 51.4184C27.2011 55.7027 46.5351 61.5345 44.7159 62.4994C42.8966 63.4643 33.6539 60.2905 33.9042 63.5675C34.1545 66.8445 46.5778 66.7231 46.3703 68.1613C46.0284 70.4977 37.8113 65.212 37.4511 68.4405C37.0787 71.7417 48.2628 71.1409 48.0674 73.72C47.9575 75.2007 45.5583 72.9675 45.2042 75.0187C44.3984 79.6975 59.1354 85.3897 59.1354 85.3897L65.5516 85.2926Z" fill="#92A6D2"/>
<path d="M175.41 100.553C180.495 93.6835 186.674 87.3298 194.024 81.8075C194.097 81.7529 194.195 81.8803 194.121 81.9349C187.15 87.2631 180.984 93.55 175.795 100.656L175.41 100.553Z" fill="#92A6D2"/>
<path d="M189.799 88.1128C189.629 87.9914 189.189 87.5363 188.603 87.3967C188.047 87.2086 187.345 87.336 187.37 87.3482C187.358 87.3785 187.834 86.8445 188.579 86.6867C189.293 86.4804 190.282 86.6564 190.605 86.9355C191.338 87.4271 191.393 88.2645 191.033 88.4163C190.666 88.5801 190.19 88.3556 189.799 88.1128Z" fill="#92A6D2"/>
<path d="M192.791 85.4909C192.62 85.3696 192.18 84.9145 191.594 84.7749C191.039 84.5868 190.337 84.7142 190.361 84.7263C190.349 84.7567 190.825 84.2226 191.57 84.0649C192.284 83.8585 193.273 84.0345 193.596 84.3137C194.329 84.8052 194.384 85.6427 194.024 85.7944C193.664 85.9582 193.181 85.7337 192.791 85.4909Z" fill="#92A6D2"/>
<path d="M184.762 86.9475C184.921 87.0446 185.489 87.2449 185.751 87.6939C186.051 88.1005 186.051 88.7559 186.026 88.7438C185.996 88.7681 186.484 88.143 186.514 87.433C186.606 86.729 186.24 85.9523 185.873 85.7884C185.214 85.3515 184.311 85.6367 184.213 86.013C184.103 86.3831 184.433 86.7108 184.762 86.9475Z" fill="#92A6D2"/>
<path d="M194.952 82.8211C194.854 82.7422 194.616 82.457 194.274 82.3478C193.95 82.2142 193.529 82.2567 193.547 82.2689C193.535 82.2871 193.847 81.9897 194.292 81.929C194.726 81.838 195.3 81.9836 195.477 82.1657C195.886 82.4873 195.886 82.985 195.666 83.0578C195.44 83.1367 195.165 82.9789 194.952 82.8211Z" fill="#92A6D2"/>
<path d="M193.847 80.788C193.859 80.9093 193.975 81.2674 193.883 81.6133C193.822 81.9531 193.56 82.2808 193.554 82.2626C193.529 82.2626 193.951 82.1655 194.244 81.8256C194.555 81.5162 194.744 80.9518 194.689 80.7091C194.64 80.1933 194.219 79.9202 194.036 80.0658C193.853 80.2054 193.835 80.5149 193.847 80.788Z" fill="#92A6D2"/>
<path d="M193.083 93.9322C188.437 94.4359 184.109 96.4749 179.946 98.4654C177.137 99.8065 177.278 100.189 176.704 100.389C176.612 100.419 176.521 100.322 176.564 100.231C176.783 99.8004 177.363 99.5031 177.76 99.2543C178.23 98.963 178.719 98.7081 179.213 98.4714C180.275 97.9617 181.362 97.5005 182.442 97.0332C184.64 96.0865 186.875 95.1884 189.194 94.5876C190.47 94.2538 191.765 94.0172 193.077 93.9019C193.101 93.8897 193.108 93.9261 193.083 93.9322Z" fill="#92A6D2"/>
<path d="M188.895 92.5001C188.926 92.6882 189.121 93.2404 188.999 93.7805C188.926 94.3146 188.535 94.8425 188.529 94.8183C188.492 94.8183 189.139 94.6423 189.579 94.09C190.049 93.5863 190.305 92.7003 190.202 92.318C190.092 91.5109 189.42 91.1225 189.139 91.3592C188.859 91.5898 188.852 92.0814 188.895 92.5001Z" fill="#92A6D2"/>
<path d="M184.805 93.9564C184.836 94.1445 185.031 94.6967 184.909 95.2368C184.836 95.7708 184.445 96.2988 184.439 96.2745C184.402 96.2745 185.056 96.0985 185.489 95.5463C185.959 95.0426 186.215 94.1566 186.112 93.7743C186.002 92.9672 185.33 92.5788 185.049 92.8155C184.769 93.0461 184.763 93.5376 184.805 93.9564Z" fill="#92A6D2"/>
<path d="M180.648 95.7952C180.679 95.9834 180.874 96.5356 180.752 97.0757C180.679 97.6097 180.288 98.1377 180.282 98.1134C180.245 98.1134 180.898 97.9374 181.332 97.3852C181.802 96.8815 182.058 95.9955 181.955 95.6132C181.845 94.8061 181.173 94.4177 180.892 94.6544C180.611 94.891 180.605 95.3765 180.648 95.7952Z" fill="#92A6D2"/>
<path d="M190.117 96.2989C190.031 96.1411 189.872 95.6253 189.476 95.2976C189.121 94.9457 188.535 94.7697 188.548 94.794C188.523 94.8122 189.097 94.5816 189.732 94.7454C190.361 94.8607 191.051 95.3644 191.185 95.7042C191.557 96.3596 191.276 97.0211 190.941 97.0029C190.605 96.9907 190.324 96.6327 190.117 96.2989Z" fill="#92A6D2"/>
<path d="M185.862 97.7977C185.776 97.64 185.617 97.1241 185.221 96.7964C184.867 96.4445 184.281 96.2685 184.293 96.2927C184.268 96.3109 184.842 96.0803 185.477 96.2442C186.106 96.3595 186.796 96.8632 186.93 97.203C187.302 97.8584 187.022 98.5199 186.686 98.5017C186.344 98.4896 186.063 98.1315 185.862 97.7977Z" fill="#92A6D2"/>
<path d="M193.358 94.7574C193.284 94.6725 193.114 94.369 192.821 94.2113C192.552 94.0353 192.161 94.0049 192.167 94.0171C192.155 94.0353 192.485 93.8107 192.906 93.8289C193.315 93.8168 193.816 94.0474 193.95 94.2416C194.267 94.6057 194.182 95.0548 193.968 95.0912C193.755 95.1276 193.529 94.9395 193.358 94.7574Z" fill="#92A6D2"/>
<path d="M192.869 92.766C192.851 92.8813 192.869 93.2272 192.698 93.5124C192.564 93.8037 192.247 94.0343 192.247 94.0161C192.228 94.01 192.625 94.0282 192.973 93.7915C193.327 93.5852 193.632 93.1362 193.645 92.8995C193.724 92.4262 193.413 92.0863 193.217 92.1652C193.01 92.2502 192.918 92.5232 192.869 92.766Z" fill="#92A6D2"/>
<path d="M72.818 95.2317L46.6757 90.6349C44.1055 90.183 42.3702 87.7071 42.8221 85.137L52.9259 27.6758C53.3778 25.1056 55.8537 23.3702 58.4239 23.8222L84.5661 28.419C87.1363 28.8709 88.8717 31.3468 88.4198 33.9169L78.316 91.3781C77.8641 93.9483 75.3882 95.6837 72.818 95.2317Z" fill="#2B478B"/>
<path d="M86.5804 34.0477L76.7111 90.1755C76.3759 92.082 74.5576 93.367 72.6632 93.0339L47.5647 88.6206C45.6762 88.2886 44.3994 86.4594 44.7346 84.5528L54.6039 28.425C54.9392 26.5185 56.7574 25.2335 58.6519 25.5666L83.7564 29.9809C85.6449 30.313 86.9157 32.1411 86.5804 34.0477Z" fill="#F7FAFF"/>
<path d="M76.0837 30.7836L65.5917 28.9388C64.735 28.7881 64.1582 27.9652 64.3089 27.1085L64.3513 26.8671C64.5019 26.0104 65.3249 25.4336 66.1816 25.5843L76.6735 27.4291C77.5302 27.5798 78.107 28.4027 77.9564 29.2594L77.914 29.5007C77.7633 30.3575 76.9404 30.9343 76.0837 30.7836Z" fill="#2B478B"/>
<rect x="56.8203" y="47" width="22" height="22" rx="3" transform="rotate(10 56.8203 47)" fill="#A6BFF7"/>
<mask id="mask0" mask-type="alpha" maskUnits="userSpaceOnUse" x="53" y="47" width="24" height="21">
<path d="M75.9086 53.5401C74.484 57.0933 71.788 61.0375 67.7886 60.1516C61.5332 58.7659 55.2779 57.3801 53.5039 65.8612L53.2956 67.0424C53.356 66.6289 53.4256 66.2355 53.5039 65.8612L56.3084 49.956C56.5961 48.3243 58.1521 47.2348 59.7837 47.5225L73.7514 49.9854C75.4425 50.2836 76.5477 51.9463 75.9086 53.5401Z" fill="black"/>
</mask>
<g mask="url(#mask0)">
<rect x="56.8203" y="47" width="22" height="22" rx="3" transform="rotate(10 56.8203 47)" fill="#6E96EF"/>
</g>
<g clip-path="url(#clip0)">
<path d="M63.3453 59.6276C62.0567 59.4004 60.8322 60.2578 60.6263 61.537C60.4946 62.358 60.8199 63.1484 61.4133 63.6621C61.2489 63.2764 61.1878 62.8435 61.2593 62.4012C61.4652 61.1221 62.6897 60.2646 63.9782 60.4918C64.2321 60.5366 64.4692 60.621 64.6849 60.7342L65.1354 58.1794C64.9035 58.1025 64.6625 58.0404 64.4181 57.9973C64.4054 57.9951 64.3959 57.9934 64.3832 57.9912L64.0519 59.87C63.8363 59.7567 63.5992 59.6724 63.3453 59.6276V59.6276Z" fill="#CCDCFF"/>
<path d="M70.2661 52.9486L70.247 52.9453L69.5869 52.8289C69.6089 53.8177 69.9986 54.7438 70.648 55.4408C70.2708 54.7034 70.1157 53.8384 70.2661 52.9486V52.9486Z" fill="#CCDCFF"/>
<path d="M73.4657 57.5212C73.215 57.477 72.9782 57.4091 72.7481 57.3227L72.4252 59.1539C71.5619 59.0017 70.7537 58.6858 70.026 58.2106C69.5562 57.9052 69.132 57.5457 68.756 57.1358L67.7731 62.7841C67.5429 64.0524 66.8316 65.1541 65.7656 65.8922C64.8974 66.4918 63.8789 66.7933 62.837 66.7633C62.5929 66.7563 62.3451 66.7322 62.1007 66.6891C61.0153 66.4978 60.0428 65.963 59.3165 65.1641C59.3916 65.2952 59.4736 65.4242 59.5656 65.5517C60.3207 66.6142 61.4452 67.3262 62.7369 67.554C62.9813 67.597 63.229 67.6211 63.4732 67.6282C64.5151 67.6581 65.5336 67.3566 66.4018 66.7571C67.4678 66.0189 68.1791 64.9172 68.4093 63.6489L69.3572 57.9945C69.7301 58.4038 70.1537 58.7665 70.6272 59.0692C71.3587 59.5418 72.1663 59.8609 73.0264 60.0126" fill="#CCDCFF"/>
<path d="M60.7454 58.7997C61.8083 58.061 63.0989 57.7748 64.3828 57.9914L64.502 57.3154C64.2701 57.2385 64.0291 57.1764 63.7847 57.1333C62.4899 56.905 61.1865 57.1889 60.1124 57.9354C59.057 58.6689 58.328 59.7969 58.1079 61.0638C57.8829 62.3396 58.1765 63.6251 58.9279 64.6902C59.0487 64.8587 59.1744 65.0183 59.3118 65.1669C58.7451 64.1867 58.5427 63.0515 58.7377 61.9275C58.9641 60.6617 59.69 59.5331 60.7454 58.7997V58.7997Z" fill="#5B86E5"/>
<path d="M72.7477 57.3229L72.8675 56.6437L72.8611 56.6426C71.9788 56.487 71.2179 56.0518 70.6514 55.4414C71.0874 56.2906 71.8249 56.9704 72.7477 57.3229Z" fill="#5B86E5"/>
<path d="M63.0429 65.0329C63.3417 65.1019 63.6377 65.1116 63.9194 65.0729C64.893 64.9337 65.7074 64.1938 65.8853 63.1845L66.5544 59.4084L67.771 52.5088L69.5864 52.8289C69.5807 52.5825 69.5979 52.3368 69.6389 52.0855L67.138 51.6445L65.922 58.541L65.2529 62.3171C65.0749 63.3263 64.2606 64.0663 63.287 64.2055C63.0048 64.2474 62.7087 64.2377 62.4105 64.1655C62.0304 64.0756 61.6919 63.8981 61.4134 63.6591C61.6974 64.331 62.2917 64.8579 63.0429 65.0329V65.0329Z" fill="#5B86E5"/>
<path d="M62.8362 66.7635C63.878 66.7934 64.8965 66.492 65.7647 65.8924C66.8308 65.1543 67.5421 64.0526 67.7723 62.7842L68.7551 57.136C69.128 57.5453 69.5516 57.908 70.0251 58.2107C70.7566 58.6833 71.5642 59.0024 72.4243 59.1541L72.7472 57.3228C71.8244 56.9703 71.0869 56.2905 70.6508 55.4414C70.0015 54.7444 69.6085 53.8177 69.5897 52.8294L67.7712 52.5088L66.5552 59.4052L65.8861 63.1814C65.7081 64.1906 64.8937 64.9305 63.9202 65.0698C63.6379 65.1116 63.3418 65.1019 63.0437 65.0297C62.2893 64.8542 61.6982 64.3278 61.4136 63.6591C60.8197 63.1486 60.4949 62.3551 60.6266 61.5341C60.8325 60.2549 62.057 59.3974 63.3456 59.6246C63.5995 59.6694 63.8366 59.7538 64.0522 59.8671L64.3835 57.9882C63.0996 57.7717 61.8089 58.0578 60.7461 58.7965C59.6907 59.5299 58.9616 60.658 58.7421 61.9217C58.544 63.0452 58.7463 64.1804 59.3162 65.1611C60.0457 65.9606 61.015 66.4947 62.1004 66.6861C62.3442 66.7324 62.592 66.7564 62.8362 66.7635V66.7635Z" fill="white"/>
</g>
<path d="M187 97H43V103H187V97Z" fill="#466EB6"/>
<path d="M44.0976 95H185.573L187 97H43L44.0976 95Z" fill="#A8C2FB"/>
<path d="M162.164 41.9C162.164 41.9823 162.164 42.0646 162.082 42.2293C162 42.3939 162 42.6408 161.835 42.8055C161.588 43.1347 161.341 43.3816 161.012 43.5463C160.765 43.6286 160.518 43.6286 160.271 43.6286C160.107 43.6286 159.86 43.5463 159.695 43.3816C159.53 43.217 159.366 43.0524 159.201 42.8055C159.037 42.4762 158.872 42.0646 158.79 41.6531C158.707 41.1592 158.625 40.6654 158.625 40.2538C158.625 39.1837 158.954 38.6076 159.366 38.6076C159.942 38.5253 160.271 38.8545 160.847 39.5953C161.424 40.2538 161.917 39.7599 162 40.0069C162.082 40.1715 162.411 40.83 162.164 41.9Z" fill="#ECB7B0"/>
<path d="M151.299 95.4028V95.3205C151.135 94.5797 150.229 90.4641 148.418 84.8669C146.361 78.6935 144.961 73.9195 143.974 70.7093C143.315 68.7338 141.916 64.0421 140.928 60.7496H140.846C140.599 60.3381 140.434 59.4326 140.434 59.1034C140.187 58.3626 140.105 57.7041 140.023 57.3748C139.611 57.5395 136.977 58.2803 133.438 58.1156C129.816 57.951 126.688 56.7987 126.277 56.634C126.194 57.4571 126.688 66.2645 127.264 70.627C127.841 74.9895 129.157 82.8914 129.734 86.3485C130.228 89.3117 131.133 94.2504 131.462 95.4851C131.462 95.6497 131.545 95.732 131.545 95.732C131.627 95.732 132.779 96.2259 133.52 96.0613C133.52 96.0613 133.52 95.8143 133.52 95.4028C133.52 93.5919 133.602 88.1594 133.52 83.6322C133.355 78.1174 133.273 70.7093 133.273 68.3223C133.273 65.8529 133.273 63.3013 133.767 63.3836C134.261 63.5482 135.578 66.2645 137.059 70.2154C138.541 74.1664 140.928 78.9405 142.986 83.4676C144.961 87.9947 149.735 95.979 149.735 95.979C149.735 95.979 150.888 96.3082 151.217 95.979C151.464 95.5674 151.299 95.4028 151.299 95.4028Z" fill="#466EB6"/>
<path d="M125.701 31.3643C125.536 31.3643 125.042 29.8827 125.207 29.7181C125.372 29.5535 125.865 30.5412 125.948 30.4589C126.03 30.3766 126.277 28.4834 126.442 28.5657C126.606 28.648 126.524 30.2943 126.606 30.212C126.689 30.212 126.853 28.2365 127.1 28.4011C127.429 28.4834 127.182 30.4589 127.265 30.4589C127.347 30.4589 127.512 29.1419 127.759 29.2242C128.088 29.3888 127.594 31.0351 127.594 31.0351C127.676 31.0351 127.923 30.0473 128.088 30.1296C128.252 30.212 127.512 32.4344 127.512 32.4344C127.512 32.4344 127.1 31.8582 126.524 31.6113C126.359 31.4466 125.948 31.3643 125.701 31.3643Z" fill="#ECB7B0"/>
<path d="M127.593 32.4344C127.593 32.4344 126.688 31.282 125.7 31.3643C125.7 31.3643 124.795 34.0806 123.725 36.55C122.655 39.0193 121.091 41.9825 118.621 41.324C116.234 40.6655 114.67 39.3485 109.485 38.6077C109.32 38.8547 109.155 39.0193 109.073 38.937C108.991 38.8547 108.909 38.6901 108.909 38.5254C103.311 37.7846 100.595 38.0316 97.9611 38.2785C95.3271 38.5254 94.3394 39.1016 93.6809 35.5622C93.0224 32.0228 92.1993 27.9896 92.1993 27.9896C92.1993 27.9896 90.3061 27.3311 90.1415 27.6603C89.8946 28.2365 90.1415 32.599 90.553 35.9738C90.9646 39.3485 91.2115 40.8302 93.1047 41.7356C94.9979 42.7233 97.8788 41.8179 99.1958 42.8056C100.43 43.7934 100.924 44.9457 100.924 47.9913C100.924 51.0368 100.924 57.704 100.924 57.704C100.924 57.704 103.641 58.6918 108.744 58.6095C113.847 58.4448 114.917 57.4571 114.917 57.4571C114.917 57.3748 114.917 51.613 114.917 49.3906C114.917 47.1681 114.753 45.6865 115.082 45.4396C115.411 45.1927 118.704 46.592 120.597 46.1804C122.49 45.8512 125.206 43.1349 126.523 38.6077C127.676 34.2452 127.593 32.4344 127.593 32.4344Z" fill="#466EB6"/>
<path d="M79.3586 23.1332C79.5232 23.0509 80.4286 22.9686 80.5109 22.7217C80.5932 22.557 79.6878 22.6394 79.6878 22.4747C79.6878 22.3101 80.9225 21.0754 80.6755 20.9108C80.4286 20.7462 79.6055 21.9809 79.5232 21.8985C79.4409 21.8162 80.5109 20.6639 80.264 20.4993C80.0171 20.3346 79.1116 21.5693 79.1116 21.5693C79.1116 21.5693 79.3586 20.6639 79.1939 20.4993C79.0293 20.3346 78.4531 21.487 78.4531 21.487C78.4531 21.487 78.5354 20.9108 78.3708 20.8285C78.1239 20.7462 77.877 22.1455 77.877 22.1455C77.877 22.1455 78.5354 23.4625 79.3586 23.1332Z" fill="#ECB7B0"/>
<path d="M89.9775 27.7424C89.9775 27.6601 90.0598 27.0016 90.0598 26.837C90.1422 26.6724 91.0476 26.3431 91.5415 26.837C92.0353 27.3309 91.953 28.154 92.0353 28.154C92.0353 28.0717 90.3068 28.154 89.9775 27.7424Z" fill="#ECB7B0"/>
<path d="M90.2242 27.3308C90.4711 27.1662 89.8949 25.9315 89.5657 26.0961C89.3188 26.3431 89.8949 27.5777 90.2242 27.3308Z" fill="#ECB7B0"/>
<path d="M90.5535 27.2486C90.7181 27.2486 90.6358 25.8493 90.2243 25.6024C89.895 25.4378 90.2243 27.2486 90.5535 27.2486Z" fill="#ECB7B0"/>
<path d="M91.0474 27.1664C91.212 27.1664 91.2943 26.3432 91.2943 26.014C91.2943 25.6024 90.9651 25.2732 90.7182 25.2732C90.3889 25.2732 90.5535 27.1664 91.0474 27.1664Z" fill="#ECB7B0"/>
<path d="M91.4583 27.1663C91.7053 27.2486 91.9522 26.4255 92.0345 25.9316C92.0345 25.4378 91.7053 25.1085 91.4583 25.3555C91.1291 25.6024 91.0468 27.0017 91.4583 27.1663Z" fill="#ECB7B0"/>
<path d="M91.7055 27.4133C92.0348 27.578 92.8579 26.5902 92.4464 26.261C92.1171 25.8494 91.4586 27.2487 91.7055 27.4133Z" fill="#ECB7B0"/>
<path d="M140.516 58.8563C140.434 58.6917 139.035 59.3501 139.035 59.5148C139.117 59.6794 140.352 59.3501 140.352 59.3501C140.352 59.3501 138.87 59.9263 138.87 60.091C138.87 60.2556 139.611 60.1733 139.776 60.0086C139.94 59.844 140.269 59.7617 140.269 59.7617C140.269 59.7617 138.952 60.7494 139.035 60.8318C139.117 61.0787 140.352 60.3379 140.352 60.3379C140.352 60.3379 139.529 61.2433 139.611 61.3256C139.776 61.4902 140.681 60.9141 140.763 60.8318C140.928 60.7494 140.928 59.4325 140.516 58.8563Z" fill="#ECB7B0"/>
<path d="M86.7672 36.9613C86.6849 37.126 86.6849 37.3729 86.5203 37.7021C86.438 38.0314 86.2733 38.3606 86.1087 38.6899C85.9441 39.1014 85.6972 39.4307 85.5325 39.5953C85.3679 39.7599 85.2856 39.8422 85.2033 39.9246H85.121C84.8741 40.0069 84.7094 39.9246 84.4625 39.8422C84.4625 39.8422 84.4625 39.7599 84.3802 39.7599C84.3802 39.6776 84.2979 39.5953 84.2979 39.5953C84.1332 39.4307 84.0509 39.2661 83.8863 39.0191C83.7217 38.7722 83.5571 38.4429 83.3924 38.196C83.3101 37.9491 83.2278 37.7021 83.1455 37.4552C83.1455 37.2083 83.1455 37.0436 83.1455 36.879V36.7967C83.3924 36.0559 83.7217 36.4675 84.3802 36.3028C84.6271 36.2205 84.8741 36.0559 85.121 35.809C85.2856 35.7267 85.3679 35.6444 85.4502 35.562C85.6972 35.3974 85.9441 35.2328 86.0264 35.3151C86.6026 35.3151 86.9318 36.2205 86.7672 36.9613Z" fill="#ECB7B0"/>
<path d="M79.7701 42.6408C80.2639 42.2293 80.017 41.7354 79.7701 40.9123C79.1116 40.83 78.4531 40.5007 77.8769 39.9246C76.313 38.443 75.3253 37.0437 75.2429 33.9981C75.1606 32.0227 78.2885 24.6969 79.3585 23.133C79.3585 23.133 78.947 22.7214 78.6177 22.4745C78.2885 22.2276 77.9592 22.1453 77.9592 22.1453C77.2184 22.7214 75.7368 24.45 74.0906 27.3309C72.4443 30.2118 71.8682 31.858 71.8682 34.6566C71.8682 37.2083 72.362 40.9123 74.9137 43.7932C75.5722 44.6163 76.5599 45.0279 77.4654 45.3571V45.2748C77.383 43.8755 79.1116 43.217 79.7701 42.6408Z" fill="#FDBB46"/>
<path d="M85.2034 39.8423C84.9565 39.9246 84.7919 39.8423 84.5449 39.76C84.7095 40.0893 84.7095 40.3362 84.6272 40.6654C84.6272 40.7478 84.6272 40.7477 84.5449 40.8301C84.7095 40.9124 84.8742 40.8301 85.0388 40.6654C85.0388 40.6654 85.0388 40.6654 85.0388 40.5831L85.1211 39.9246C85.2034 39.9246 85.2034 39.9246 85.2034 39.8423Z" fill="#ECB7B0"/>
<path d="M88.2487 39.3483C87.6725 38.5252 87.1787 37.7844 87.261 36.1382C87.3433 34.492 86.6025 33.3396 85.0386 33.3396C84.1331 33.3396 83.0631 33.5865 82.6515 35.2328C82.24 36.879 81.8284 37.5375 81.1699 38.0314C80.5937 38.4429 79.2767 39.0191 79.5237 40.2538C79.606 40.5007 79.606 40.6653 79.6883 40.9123C79.9352 41.7354 80.1822 42.2292 79.6883 42.6408C79.1121 43.1347 77.3013 43.8755 77.3836 45.2748V45.3571C77.4659 46.2625 78.289 46.5095 79.2767 46.5918C79.8529 46.5918 80.4291 46.5095 81.0876 46.4271C82.8985 46.0979 83.7216 45.1102 83.7216 44.287C83.7216 43.4639 82.7338 42.1469 83.6393 41.7354C84.0508 41.4884 84.3801 41.2415 84.5447 40.9123C84.5447 40.83 84.5447 40.83 84.627 40.7476C84.7093 40.5007 84.7093 40.1715 84.5447 39.8422C84.5447 39.8422 84.5447 39.7599 84.4624 39.7599C84.4624 39.6776 84.3801 39.5953 84.3801 39.5953C83.8862 39.0191 83.3923 38.1137 83.2277 37.4552C83.1454 37.2906 83.1454 37.0436 83.2277 36.879V36.7967C83.4746 36.0559 83.8039 36.4674 84.4624 36.3028C84.7093 36.2205 84.9562 36.0559 85.2032 35.8089C85.3678 35.7266 85.4501 35.6443 85.5324 35.562C85.7794 35.3974 86.0263 35.2328 86.1086 35.3151C86.4378 35.3974 86.7671 36.3028 86.6025 37.0436C86.4379 37.7844 85.8617 39.266 85.4501 39.5953C85.2855 39.7599 85.2032 39.8422 85.1209 39.9245C85.0386 40.0068 85.0386 40.0891 85.0386 40.0891L84.9562 40.7476V40.83C86.1909 40.83 87.4256 40.9123 88.4956 41.1592C88.7426 40.6653 88.6603 39.9245 88.2487 39.3483Z" fill="#13005E"/>
<path d="M87.2607 95.4026C87.2607 95.4026 87.2607 95.3203 87.2607 95.4026C87.2607 95.3203 87.2607 95.3203 87.2607 95.4026V95.3203C87.2607 95.3203 87.2607 95.3203 87.2607 95.4026C87.2607 95.6496 87.2607 95.9788 87.7546 96.2257C88.2485 96.4727 89.977 97.4604 90.7178 96.9665C91.3763 96.555 90.0593 95.6496 89.3185 95.3203C89.3185 95.4849 89.2362 95.5672 89.2362 95.5672C88.9893 95.8142 87.3431 95.4026 87.2607 95.4026Z" fill="#13005E"/>
<path d="M77.6465 95.3518C77.6465 95.3518 77.6465 95.2695 77.6465 95.3518C77.6465 95.2695 77.6465 95.2695 77.6465 95.3518V95.2695C77.6465 95.2695 77.6465 95.2695 77.6465 95.3518C77.6465 95.5988 77.6465 95.928 78.1404 96.175C78.6342 96.4219 80.3628 97.4096 81.1036 96.9158C81.7621 96.5042 80.4451 95.5988 79.7043 95.2695C79.7043 95.4342 79.622 95.5165 79.622 95.5165C79.375 95.7634 77.7288 95.3518 77.6465 95.3518Z" fill="#13005E"/>
<path d="M91.377 73.0963C91.2947 71.6147 91.1301 70.627 91.0478 70.0508C90.5539 70.2977 90.0601 70.5447 89.4016 70.7093C88.5785 70.9562 87.1792 71.1208 85.6152 71.1208C85.9445 73.4256 86.356 77.3765 86.7676 80.9159C87.1792 84.7846 87.2615 87.3362 87.2615 90.1348C87.2615 92.6865 87.2615 94.9089 87.3438 95.3204V95.4027C87.4261 95.4851 89.0723 95.8143 89.2369 95.5674C89.2369 95.5674 89.2369 95.4851 89.3193 95.3204C89.6485 94.0035 90.5539 87.9947 90.9655 85.1961C91.377 82.0683 91.5417 75.9772 91.377 73.0963Z" fill="#ECB7B0"/>
<path d="M81.7618 73.0455C81.6795 71.5639 81.5149 70.5762 81.4326 70C80.9387 70.2469 80.6585 69.8354 80 70C79.1769 70.2469 78.0639 69 76.5 69C76.8292 71.3047 76.7408 77.3257 77.1524 80.8651C77.5639 84.7338 77.6462 87.2854 77.6462 90.084C77.6462 92.6357 77.6462 94.8581 77.7286 95.2697V95.352C77.8109 95.4343 79.4571 95.7635 79.6217 95.5166C79.6217 95.5166 79.6217 95.4343 79.704 95.2697C80.0333 93.9527 80.9387 87.9439 81.3503 85.1453C81.7618 82.0175 81.9264 75.9264 81.7618 73.0455Z" fill="#ECB7B0"/>
<path d="M160.271 44.2048C160.353 44.2048 160.353 43.9579 160.353 43.6287C160.189 43.6287 159.942 43.5463 159.777 43.3817C159.036 42.8055 158.625 41.3239 158.707 40.2539C158.707 39.1838 159.036 38.6077 159.448 38.6077C160.024 38.5253 160.353 38.8546 160.929 39.5954C161.506 40.2539 162 39.76 162.082 40.0069C162.164 40.2539 162.493 40.9947 162.164 42.3117C162 42.9702 161.588 43.3817 161.094 43.5463C161.094 43.7933 161.012 44.0402 161.094 44.1225C162.74 43.9579 164.304 43.9579 165.457 44.0402C165.127 43.6287 164.798 43.1348 164.551 42.6409C163.646 40.9124 163.893 39.76 163.646 38.6077C163.399 37.4553 162.493 36.4675 160.189 36.9614C157.966 37.4553 158.213 39.6777 158.295 41.1593C158.378 42.4763 158.213 43.9579 158.131 44.4518C158.625 44.4518 159.201 44.3695 159.859 44.2871C160.024 44.2048 160.189 44.2048 160.271 44.2048Z" fill="#13005E"/>
<path d="M166.527 50.7897C166.363 52.189 166.033 56.3046 166.28 58.3624C166.445 58.1978 166.609 57.9508 166.692 57.7039C166.939 57.21 167.35 57.457 168.585 57.3746C169.82 57.3746 170.89 57.21 171.219 55.2345C171.466 53.2591 169.984 52.0244 168.996 50.9543C168.42 50.3782 168.091 49.555 167.844 48.7319C167.021 48.7319 166.692 49.3904 166.527 50.7897Z" fill="#13005E"/>
<path d="M151.958 47.4149C152.123 47.168 152.37 46.7564 152.534 45.9333C152.781 44.6986 152.781 44.1225 152.781 44.1225C152.37 43.7932 150.888 42.3939 150.394 40.5007C149.818 38.3606 149.077 33.3396 149.653 29.6356C149.818 28.5656 150.23 28.3186 150.312 28.0717C150.394 27.8248 150.312 27.7424 150.065 27.8248C149.9 27.9071 149.653 28.4009 149.571 28.3186C149.489 28.2363 149.818 26.837 149.571 26.7547C149.324 26.6724 149.242 27.9894 149.242 27.9894C149.242 27.9894 149.242 26.5901 148.995 26.5078C148.748 26.4255 148.83 27.9894 148.83 27.9894C148.83 27.9894 148.666 26.7547 148.501 26.7547C148.336 26.7547 148.336 28.2363 148.336 28.154C148.336 28.0717 148.172 27.0016 148.007 27.084C147.843 27.084 147.843 28.2363 147.513 29.8002C147.184 31.3642 146.608 33.5866 146.937 37.4552C147.266 41.3239 147.76 42.5585 148.336 43.8755C148.913 45.1925 151.135 47.168 151.794 47.5795C151.711 47.6619 151.794 47.5795 151.958 47.4149Z" fill="#ECB7B0"/>
<path d="M159.859 44.2049C160.024 44.2049 160.106 44.2049 160.271 44.1226C160.189 44.2049 160.024 44.2049 159.859 44.2049Z" fill="#ECB7B0"/>
<path d="M184.306 40.9123C184.141 40.7477 183.73 41.8177 183.647 41.7354C183.565 41.7354 183.977 40.5007 183.812 40.3361C183.647 40.2538 183.071 41.5708 183.071 41.5708C183.071 41.5708 183.318 39.5953 183.071 39.513C182.824 39.4307 182.495 41.2415 182.413 41.2415C182.33 41.2415 182.33 39.8422 182.166 39.8422C182.001 39.8422 182.001 41.4061 181.919 41.4885C181.919 41.5708 181.343 40.4184 181.178 40.583C181.013 40.7477 181.672 42.2293 181.672 42.4762C181.672 42.7231 181.26 44.0401 180.19 45.6863C179.12 47.3326 177.556 48.9788 175.581 48.8142C173.605 48.6496 171.054 46.6741 171.054 46.6741L169.901 50.2135C170.313 50.5427 172.124 52.1066 175.334 52.2713C178.544 52.4359 180.437 50.625 181.096 49.1434C182.083 47.0033 183.565 42.8878 183.647 42.5585C183.894 42.3116 184.471 41.0769 184.306 40.9123Z" fill="#ECB7B0"/>
<path d="M159.201 95.1558C159.119 95.0735 159.119 94.9912 159.037 94.8266C158.378 95.0735 157.39 95.5674 157.473 95.9789C157.555 96.4728 158.872 96.3905 160.024 96.2259C161.177 96.0612 161.588 95.8966 161.588 95.8966C161.588 95.8966 161.424 94.7442 161.259 94.4973C161.259 94.5796 161.259 94.7442 161.259 94.7442C161.259 95.4027 159.53 95.5674 159.201 95.1558Z" fill="#13005E"/>
<path d="M161.176 94.4972C161.012 92.9333 159.695 85.4429 159.119 82.8912C156.32 82.1504 154.838 81.492 154.098 80.9158C154.509 82.3974 155.826 86.5953 156.402 88.4884C157.061 90.3816 158.378 93.7564 158.954 94.8264C159.036 94.991 159.119 95.1557 159.119 95.1557C159.448 95.5672 161.176 95.4026 161.176 94.6618C161.259 94.6618 161.259 94.5795 161.176 94.4972Z" fill="#ECB7B0"/>
<path d="M174.182 93.2626C174.1 93.9211 172.536 94.415 172.371 94.3327L172.289 94.2504C171.795 94.7442 171.219 95.8966 171.137 96.2258C171.137 96.5551 171.96 96.5551 172.618 96.2258C173.195 95.8966 174.347 94.4973 174.347 94.3327C174.347 94.2504 174.182 93.3449 174.1 92.8511C174.182 93.098 174.182 93.1803 174.182 93.2626Z" fill="#13005E"/>
<path d="M174.099 92.8509C174.017 91.2046 172.947 84.5374 172.124 81.6565C171.136 82.315 169.49 83.0558 167.597 83.385C168.255 84.949 169.654 88.2414 170.395 90.2169C171.136 92.1101 171.959 93.7563 172.206 94.1679C172.288 94.2502 172.288 94.2502 172.288 94.2502C172.453 94.3325 174.017 93.7563 174.099 93.1801C174.182 93.1801 174.182 93.0978 174.099 92.8509Z" fill="#ECB7B0"/>
<path d="M172.947 80.9981C172.783 81.245 172.453 81.4096 172.206 81.6566C171.219 82.3151 169.572 83.0559 167.679 83.3851C165.704 83.7967 163.234 83.7967 160.765 83.2205C160.189 83.0559 159.695 82.9736 159.201 82.8089C156.403 82.0681 154.921 81.4096 154.18 80.8335C153.769 80.5042 153.522 80.2573 153.522 80.0103C153.357 79.5165 152.616 77.8702 152.616 74.907C152.616 72.0261 153.11 68.9806 154.427 65.3589C155.003 63.795 155.579 62.3134 155.991 61.2433C156.403 60.1733 156.814 59.3501 156.896 59.1032C156.896 59.1032 157.308 59.5148 158.46 59.844C158.543 59.844 158.543 59.844 158.625 59.844C159.119 60.0086 159.695 60.0909 160.436 60.0909C160.518 60.0909 160.518 60.0909 160.6 60.0909C160.93 60.0909 161.259 60.0909 161.67 60.0909C162.164 60.0909 162.576 60.0909 162.987 60.0086C163.07 60.0086 163.07 60.0086 163.152 60.0086C163.975 59.9263 164.634 59.7617 165.128 59.5971C165.21 59.5971 165.21 59.5971 165.292 59.5148C166.198 59.1855 166.527 58.6917 166.527 58.6917C166.527 58.6917 168.914 63.8773 170.396 68.7337C171.63 73.837 172.947 80.9981 172.947 80.9981Z" fill="#A8C2FB"/>
<path d="M162.082 44.1226C161.999 44.0403 161.176 44.2872 161.094 44.1226C161.094 44.1226 161.094 44.1226 161.094 44.0403C161.094 43.958 161.094 43.711 161.094 43.4641C160.847 43.5464 160.6 43.5464 160.353 43.5464C160.353 43.8757 160.353 44.1226 160.271 44.1226C160.106 44.1226 160.024 44.1226 159.859 44.2049C159.777 44.2049 159.695 44.2872 159.695 44.3695C159.612 44.6165 159.859 45.7688 160.189 46.6743C160.518 47.5797 160.765 47.9912 161.012 47.9089C161.259 47.9089 161.423 46.6743 161.67 45.6865C161.917 44.7811 162.164 44.2872 162.082 44.1226Z" fill="#ECB7B0"/>
<path d="M167.103 44.2871C166.774 44.2048 166.198 44.1225 165.457 44.0402C164.305 43.9578 162.741 43.9578 161.094 44.1225C161.094 44.1225 161.094 44.1225 161.094 44.2048C161.177 44.3694 162 44.1225 162.082 44.2048C162.165 44.2871 161.918 44.8633 161.671 45.851C161.424 46.8387 161.259 47.9911 161.012 48.0734C160.765 48.0734 160.518 47.7442 160.189 46.8387C159.86 45.9333 159.613 44.6986 159.695 44.534C159.695 44.4517 159.777 44.3694 159.86 44.3694C159.201 44.4517 158.625 44.4517 158.131 44.534C156.567 44.6163 155.497 44.534 154.263 44.6986C153.357 44.781 152.781 44.3694 152.699 44.3694C152.699 44.3694 152.699 44.8633 152.452 46.1803C152.287 46.9211 152.04 47.4149 151.876 47.6619C151.793 47.8265 151.711 47.9088 151.711 47.9088C152.205 48.238 153.769 48.8142 154.345 48.7319C154.921 48.7319 155.086 48.8965 155.333 49.4727C155.58 49.9666 155.168 51.1189 155.168 52.189C155.25 53.259 156.732 54.3291 157.061 55.3991C157.39 56.4692 156.897 58.4447 156.732 59.4324C156.732 59.4324 157.72 60.5848 161.424 60.5848C165.128 60.5848 166.198 59.2678 166.198 59.2678C166.198 59.1032 166.115 58.9385 166.115 58.6916C165.951 56.6338 166.198 52.5182 166.362 51.1189C166.609 49.7196 166.856 49.0612 167.597 49.1435C167.679 49.1435 167.762 49.1435 167.844 49.2258C168.749 49.4727 169.819 50.6251 169.819 50.6251L170.972 47.0857C170.643 46.3449 168.091 44.534 167.103 44.2871Z" fill="#355389"/>
<path d="M109.073 37.3731C108.991 37.3731 108.991 37.2908 108.909 37.2908C108.826 37.7023 108.744 38.1962 108.744 38.5254C108.744 38.6901 108.826 38.8547 108.909 38.937C108.991 39.0193 109.156 38.8547 109.32 38.6078C109.485 38.2785 109.732 37.867 109.814 37.7023C109.65 37.62 109.32 37.5377 109.073 37.3731Z" fill="#ECB7B0"/>
<path d="M111.707 35.6444C111.625 35.8913 111.543 36.1383 111.378 36.3852C111.296 36.5498 111.214 36.7145 111.131 36.8791C110.802 37.3729 110.39 37.7022 109.897 37.7022C109.65 37.7022 109.32 37.6199 109.073 37.4553C108.991 37.4553 108.991 37.3729 108.909 37.3729C108.58 37.0437 108.415 36.6321 108.25 36.3029C108.25 36.3029 108.168 35.6444 108.168 35.4798C108.25 35.3152 107.839 35.2328 107.674 34.8213C107.592 34.6567 107.592 34.492 107.592 34.4097C107.592 34.3274 107.592 34.3274 107.674 34.2451C107.674 34.1628 107.756 34.0805 107.839 34.0805H107.921C108.086 34.0805 108.168 34.1628 108.333 34.1628C108.415 34.2451 108.58 34.2451 108.662 34.1628C108.991 34.0805 108.909 33.7512 109.32 33.6689C109.732 33.5866 110.39 33.1751 110.637 32.8458C110.884 32.5166 111.049 32.3519 111.46 32.5989C111.872 32.8458 111.954 33.3397 111.872 33.5866C111.872 33.6689 111.872 33.6689 111.954 33.6689C112.119 34.2451 111.954 34.9036 111.707 35.6444Z" fill="#ECB7B0"/>
<path d="M99.7721 95.8966C98.8666 96.2259 98.4551 95.732 98.4551 95.732C98.4551 95.6497 98.4551 95.5674 98.4551 95.4851C97.7143 95.732 96.8912 96.3082 96.9735 96.6374C97.0558 97.049 98.2905 96.9667 99.3605 96.7197C100.431 96.4728 100.842 96.1435 100.842 96.1435C100.842 96.1435 101.171 95.1558 101.089 94.4973C101.089 94.5796 101.007 94.6619 101.007 94.7442C100.842 95.1558 100.678 95.5674 99.7721 95.8966Z" fill="#3A28B1"/>
<path d="M116.646 95.8142C115.741 95.8965 114.835 95.4027 114.835 95.4027V95.3204C114.753 95.8965 114.918 96.6373 115.082 96.7196C115.247 96.802 119.033 96.802 119.363 96.4727C119.609 96.2258 118.622 95.5673 117.716 95.238C117.634 95.4027 117.387 95.7319 116.646 95.8142Z" fill="#3A28B1"/>
<path d="M116.728 80.7512C116.564 77.7057 115.576 66.0997 115.329 63.1365C115.082 60.1733 114.67 57.457 114.67 57.457C114.67 57.5393 113.6 58.5271 108.497 58.6094C103.394 58.774 100.677 57.704 100.677 57.704C100.595 58.4448 99.6898 67.499 99.5251 70.2153C99.3605 72.9316 98.6197 81.3274 98.5374 84.126C98.4551 86.76 98.4551 94.0034 98.4551 95.485C98.4551 95.5673 98.4551 95.7319 98.4551 95.7319C98.4551 95.7319 98.8666 96.1435 99.7721 95.8965C100.677 95.5673 100.842 95.238 101.007 94.8265C101.007 94.8265 101.007 94.7442 101.089 94.5796C101.418 93.3449 102.488 87.7477 103.229 83.3029C103.97 78.3642 105.122 70.8738 105.698 68.816C106.275 66.7582 107.18 62.8073 107.756 62.9719C108.332 63.1365 109.403 66.5113 110.143 71.0384C110.802 75.4833 112.695 85.196 113.107 87.6654C113.518 89.9701 114.588 94.4972 114.753 95.238C114.753 95.3204 114.753 95.3204 114.753 95.3204C114.753 95.3204 115.741 95.8142 116.564 95.7319C117.304 95.6496 117.469 95.3204 117.551 95.1557C117.551 95.0734 117.551 95.0734 117.551 94.9911C117.716 94.9088 116.893 83.7967 116.728 80.7512Z" fill="#355389"/>
<path d="M113.518 31.4465C113.436 30.8703 112.777 30.6233 112.366 30.9526C111.954 31.2818 111.872 30.9526 111.625 30.6233C111.378 30.2118 110.802 29.8825 109.402 30.2118C108.003 30.4587 107.509 32.1049 107.345 33.2573C107.262 34.4097 107.509 34.5743 107.592 35.3151C107.674 35.9736 108.003 36.1382 108.332 36.3028C108.332 36.3028 108.25 35.6443 108.25 35.4797C108.332 35.3151 107.921 35.2328 107.756 34.8212C107.674 34.492 107.756 34.0804 107.839 33.9981H107.921C108.085 33.9981 108.168 34.0804 108.332 34.0804C108.332 34.0804 108.332 34.0804 108.415 34.0804C108.497 34.1627 108.662 34.1627 108.744 34.0804C109.073 33.9981 108.991 33.6689 109.402 33.5866C109.814 33.5042 110.473 33.0927 110.719 32.7634C110.966 32.4342 111.131 32.2696 111.543 32.5165C111.954 32.7634 112.036 33.2573 111.954 33.5042C111.954 33.5866 111.954 33.5866 112.036 33.5866C112.201 33.5866 112.53 33.3396 112.86 33.0104C113.189 32.5988 113.6 32.0226 113.518 31.4465Z" fill="#355389"/>
<path d="M134.59 34.4922C134.507 34.986 133.931 35.9738 133.52 36.3853C133.52 36.3853 133.602 36.3853 133.684 36.4676C133.52 36.6323 133.437 36.7146 133.273 36.7969C133.026 36.9615 132.779 36.9615 132.532 36.9615C132.45 36.9615 132.45 36.9615 132.367 36.9615C131.709 36.8792 131.297 36.303 131.133 35.6445C130.968 35.233 130.968 34.7391 130.886 34.2452C130.886 34.1629 130.886 34.1629 130.886 34.0806C130.886 32.8459 131.05 31.6936 131.38 31.1997C131.462 31.282 131.462 31.282 131.544 31.3643C132.285 31.9405 132.861 31.7759 133.108 32.2698C133.355 32.6813 133.931 33.0929 134.261 33.4221C134.672 33.6691 134.672 33.9983 134.59 34.4922Z" fill="#ECB7B0"/>
<path d="M145.784 46.0157C143.727 42.5586 141.01 39.3484 138.047 38.443C136.565 38.0314 134.837 37.6199 133.108 37.4553C132.944 37.7845 132.697 38.0314 132.45 37.8668C132.285 37.7845 132.285 37.6199 132.368 37.3729C130.886 37.2906 129.322 37.2906 127.84 37.5376C124.466 38.1137 122.161 38.8545 121.173 38.1137C120.103 37.4553 121.009 34.9036 121.502 33.3397C121.996 31.8581 125.289 25.5201 125.289 25.5201L123.56 24.2854C122.572 25.1085 120.35 28.0717 119.115 30.3765C117.881 32.6812 116.893 35.7267 117.222 38.1137C117.551 40.5008 118.704 42.0647 121.667 42.3939C124.63 42.7232 126.935 42.2293 127.182 42.6409C127.347 43.0524 127.1 44.4517 126.853 47.9911C126.441 51.4482 126.194 56.5515 126.194 56.5515C126.194 56.5515 126.194 56.5515 126.276 56.5515C126.688 56.7162 129.816 57.9508 133.438 58.0331C136.977 58.1978 139.529 57.457 139.94 57.2923C140.023 57.2923 140.023 57.2923 140.023 57.2923C140.023 57.2923 139.199 52.5183 138.87 49.8843C138.541 47.2503 137.8 43.9579 138.459 43.9579C139.117 44.0402 141.257 46.098 142.656 48.6496C144.056 51.2836 143.644 52.5183 143.068 54.3291C142.492 56.14 140.434 58.8563 140.434 58.8563C140.434 58.8563 140.434 58.9386 140.434 59.0209C140.516 59.4324 140.599 60.2556 140.846 60.6671C140.846 60.6671 140.846 60.6671 140.928 60.6671C141.339 60.4202 144.879 58.1978 146.196 55.6461C147.595 52.9298 147.842 49.4727 145.784 46.0157Z" fill="#FDBB46"/>
<path d="M132.532 36.879C132.45 36.879 132.45 36.879 132.45 36.879C132.45 37.0436 132.367 37.2082 132.367 37.3729C132.367 37.5375 132.367 37.7844 132.45 37.8667C132.696 38.0313 133.026 37.7844 133.108 37.4552C133.108 37.3728 133.108 37.3728 133.19 37.2905C133.273 37.0436 133.273 36.879 133.273 36.7144C133.026 36.879 132.779 36.9613 132.532 36.879Z" fill="#ECB7B0"/>
<path d="M131.545 95.5673C131.545 95.5673 131.545 95.485 131.462 95.3204C130.886 95.485 129.898 95.8142 129.898 96.3081C129.981 96.8843 132.285 96.3904 133.026 96.3081L133.685 96.1435L133.52 95.238C133.52 95.6496 133.52 95.8965 133.52 95.8965C132.779 96.0612 131.627 95.5673 131.545 95.5673Z" fill="#3A28B1"/>
<path d="M151.3 95.238C151.3 95.3203 151.3 95.3204 151.3 95.3204C151.3 95.3204 151.382 95.485 151.053 95.8142C150.724 96.1435 149.571 95.8142 149.571 95.8142C149.571 95.8142 150.394 96.3904 150.971 96.7196C151.547 97.0489 152.781 96.8843 152.781 96.4727C152.946 96.2258 151.794 95.485 151.3 95.238Z" fill="#3A28B1"/>
<path d="M134.755 30.8702C134.097 30.1294 132.121 28.6478 131.216 29.6356C130.969 29.8825 130.886 30.6233 131.463 31.1172C131.545 31.1995 131.545 31.1995 131.627 31.2818C132.368 31.858 132.944 31.6933 133.191 32.1872C133.438 32.5988 134.014 33.0103 134.344 33.3396C134.673 33.6688 134.673 33.9981 134.59 34.4919C134.508 34.9858 133.932 35.9735 133.52 36.3851C133.52 36.3851 133.603 36.3851 133.685 36.4674C133.932 36.5497 134.59 36.632 134.92 36.2205C135.249 35.8089 135.249 35.7266 135.167 35.3974C134.837 35.4797 134.508 35.4797 134.344 35.3974C134.344 35.3151 134.426 35.1504 134.508 34.9035C134.59 34.7389 134.755 34.4919 135.002 34.4096C135.167 34.3273 135.331 34.3273 135.414 34.4096C135.578 33.9981 135.907 33.6688 135.907 33.0926C135.99 32.2695 135.414 31.611 134.755 30.8702Z" fill="#355389"/>
<path d="M135.495 34.3274C135.413 34.245 135.248 34.245 135.083 34.3274C134.919 34.4097 134.754 34.5743 134.589 34.8212C134.425 35.0682 134.343 35.2328 134.425 35.3151C134.589 35.4797 134.919 35.4797 135.248 35.3151C135.495 35.2328 135.742 35.0682 135.742 34.9035C135.742 34.6566 135.66 34.4097 135.495 34.3274Z" fill="#ECB7B0"/>
<path d="M127.182 15.8074C127.1 15.8074 127.1 15.8897 127.1 15.8897C127.017 16.2189 128.005 17.1244 128.91 17.9475C129.898 18.8529 130.886 19.5114 131.215 19.0998C131.544 18.8529 128.17 15.2312 127.182 15.8074Z" fill="#FDB001"/>
<path d="M125.289 17.2066C125.783 16.5481 126.112 17.042 126.277 17.3712C126.359 17.2066 126.441 17.042 126.524 16.8774C126.359 16.5481 125.947 16.0542 125.289 16.1366C124.384 16.3012 123.807 18.2767 125.536 19.0998C125.618 18.9351 125.618 18.7705 125.701 18.5236C125.454 18.4413 124.713 18.0297 125.289 17.2066Z" fill="#FDB001"/>
<path d="M130.393 20.499C130.228 20.6636 130.146 20.8283 129.981 20.9929C130.228 21.0752 130.475 21.1575 130.475 21.4868C130.475 21.9806 129.734 22.3099 129.24 21.816C128.993 22.0629 128.829 22.2276 128.664 22.3099C128.911 22.6391 130.722 23.4622 131.463 22.3099C132.121 21.3221 131.545 20.499 130.393 20.499Z" fill="#FDB001"/>
<path d="M125.782 22.063L124.795 23.4623C124.795 23.4623 123.395 23.7092 123.148 24.1208C123.56 23.7092 125.865 24.8616 125.782 25.6024C125.865 25.1908 125.865 24.2031 125.535 23.7915L126.606 22.6392C126.523 22.5569 126.359 22.5569 126.276 22.4745C126.112 22.3099 125.947 22.2276 125.782 22.063Z" fill="#E99B00"/>
<path d="M128.911 18.0297C128.006 17.2066 127.018 16.3012 127.1 15.9719C126.936 16.2189 126.689 16.5481 126.524 16.8774C126.442 17.042 126.359 17.2066 126.277 17.3712C126.112 17.7828 125.866 18.112 125.783 18.5236C125.701 18.6882 125.619 18.8528 125.619 19.0998C125.536 19.2644 125.536 19.429 125.454 19.5936C125.207 20.746 125.454 21.5691 125.866 22.063C126.03 22.2276 126.112 22.3099 126.277 22.3922C126.359 22.4745 126.442 22.4745 126.606 22.5568C127.1 22.8038 127.759 23.0507 128.746 22.3099C128.911 22.1453 129.158 21.9807 129.323 21.816C129.57 21.5691 129.817 21.3222 130.063 20.9929C130.228 20.8283 130.31 20.6637 130.475 20.4991C130.722 20.1698 130.969 19.6759 131.298 19.2644C130.969 19.5113 129.899 18.9351 128.911 18.0297Z" fill="#FDC130"/>
<path d="M125.7 25.6023C125.7 25.6846 125.7 25.6846 125.618 25.7669C125.7 25.6846 125.7 25.6023 125.7 25.6023Z" fill="#261D98"/>
<path d="M123.149 24.0386C123.149 24.1209 123.067 24.1209 123.149 24.0386C122.984 24.2855 125.042 26.5079 125.701 25.7671C125.701 25.7671 125.701 25.7671 125.701 25.6848C125.701 25.6848 125.701 25.6025 125.783 25.5202C125.783 24.7794 123.478 23.7093 123.149 24.0386Z" fill="#CB8700"/>
<path d="M124.219 24.1207C124.548 24.0384 123.89 22.7214 123.56 22.7214C123.231 22.8037 123.89 24.2854 124.219 24.1207Z" fill="#ECB7B0"/>
<path d="M124.63 23.8739C124.877 23.7916 124.548 22.6393 124.218 22.31C123.889 21.9808 123.724 22.557 123.971 23.1331C124.218 23.627 124.383 23.9562 124.63 23.8739Z" fill="#ECB7B0"/>
<path d="M124.795 23.5446C125.124 23.5446 124.959 21.9806 124.548 22.063C124.136 22.1453 124.548 23.5446 124.795 23.5446Z" fill="#ECB7B0"/>
<path d="M125.124 23.3799C125.289 23.3799 125.289 22.2275 124.96 22.2275C124.548 22.2275 124.96 23.4622 125.124 23.3799Z" fill="#ECB7B0"/>
<path d="M125.207 23.8738C125.207 24.2031 126.524 24.0384 126.524 23.6269C126.524 23.2153 125.207 23.5446 125.207 23.8738Z" fill="#ECB7B0"/>
<path d="M128.417 18.6059C127.759 18.2766 126.688 18.3589 126.442 19.429C126.277 20.499 127.429 21.7337 128.664 21.1575C129.899 20.5814 129.322 19.0998 128.417 18.6059Z" fill="#A9A8E1"/>
<path d="M127.265 19.2646C127.182 19.5938 128.005 19.4292 128.005 19.4292C128.005 19.4292 127.182 20.4169 127.347 20.5816C127.512 20.7462 128.499 19.2646 128.499 19.2646C128.499 19.2646 127.347 19.0999 127.265 19.2646Z" fill="#13005E"/>
<path d="M134.673 23.6269C134.673 23.5446 135.249 23.2153 135.249 23.2153L135.661 25.1908L135.249 25.2731L134.673 23.6269Z" fill="#A9A8E1"/>
<path d="M140.599 26.7548L141.093 26.4255L141.916 27.4133L141.833 27.8248L140.599 26.7548Z" fill="#13005E"/>
<path d="M153.192 31.5288H153.933L154.015 33.0104C154.015 33.0104 153.522 33.0927 153.522 33.0104C153.604 32.9281 153.192 31.5288 153.192 31.5288Z" fill="#3A28B1"/>
<path d="M144.879 18.1121V18.6883L146.278 18.359V17.4536L144.879 18.1121Z" fill="#3A28B1"/>
<path d="M136.895 15.3958H137.471L137.965 13.6672L137.224 13.1733C137.306 13.2557 136.895 15.3958 136.895 15.3958Z" fill="#FDC130"/>
<path d="M126.194 11.1979C126.277 11.1979 126.606 11.4448 126.606 11.4448L126.688 9.30469L125.865 9.46931L126.194 11.1979Z" fill="#F44234"/>
<path d="M121.338 19.0999L121.914 19.1822L121.338 20.8284L120.68 20.6638L121.338 19.0999Z" fill="#13005E"/>
<path d="M116.646 23.7915L116.893 24.3677L115.494 25.6847L115.329 24.7792C115.411 24.6969 116.646 23.7915 116.646 23.7915Z" fill="#3A28B1"/>
<path d="M114.341 8.3993C114.341 8.48161 114.835 7.57618 114.835 7.57618C114.835 7.57618 114.259 7.16462 113.682 7L113.436 7.32925C113.436 7.32925 114.176 7.65849 114.341 8.3993Z" fill="#A9A8E1"/>
<path d="M96.8092 14.3256L97.3853 13.7494L96.8092 11.6917L96.0684 12.5971C96.0684 12.5148 96.6445 13.5025 96.8092 14.3256Z" fill="#FDC130"/>
<path d="M83.7217 36.9613C83.804 36.879 83.804 36.7967 83.8863 36.7144C83.9686 36.6321 84.0509 36.5497 84.1332 36.4674C84.2155 36.3851 84.3802 36.3851 84.5448 36.3851C84.6271 36.3851 84.7094 36.4674 84.7917 36.5497L84.874 36.6321C84.874 36.6321 84.874 36.7144 84.9564 36.7144C85.0387 36.879 85.0387 37.0436 85.0387 37.2082C85.0387 37.3729 85.0387 37.6198 85.0387 37.7844C85.0387 37.8667 85.0387 37.949 85.0387 38.0314C85.0387 38.1137 85.0387 38.1137 85.0387 38.196C85.121 38.0314 85.121 37.8667 85.2033 37.6198C85.2033 37.4552 85.2856 37.2082 85.2856 37.0436C85.2856 36.879 85.2856 36.7144 85.3679 36.4674C85.4502 36.3028 85.5325 36.1382 85.6972 36.0559C85.8618 35.9736 86.0264 35.9736 86.191 36.0559C86.3557 36.1382 86.3556 36.3028 86.3556 36.3851C86.3556 36.4674 86.3556 36.5497 86.3556 36.6321C86.3556 36.7144 86.3556 36.7144 86.3556 36.7144C86.3556 36.7144 86.3557 36.6321 86.2733 36.4674C86.2733 36.3851 86.191 36.3028 86.1087 36.3028C86.0264 36.2205 85.9441 36.2205 85.8618 36.3028C85.7795 36.3851 85.6972 36.4674 85.6148 36.6321C85.6148 36.7144 85.5325 36.7967 85.5325 36.879C85.5325 36.9613 85.5325 37.0436 85.5325 37.1259C85.5325 37.2905 85.4502 37.5375 85.4502 37.7021C85.3679 37.8667 85.3679 38.1137 85.2856 38.2783C85.2856 38.2783 85.2856 38.2783 85.2033 38.2783L85.121 38.196C85.121 38.1137 85.121 38.1137 85.0387 38.0314C85.0387 37.949 85.0387 37.8667 85.0387 37.7021C85.0387 37.5375 85.0387 37.2905 84.9564 37.1259C84.9564 36.9613 84.874 36.7967 84.874 36.6321C84.874 36.6321 84.874 36.5497 84.7917 36.5497L84.7094 36.4674C84.6271 36.3851 84.6271 36.3851 84.5448 36.3851H84.4625H84.3802C84.2979 36.3851 84.2979 36.3851 84.2155 36.4674C84.1332 36.5497 84.0509 36.6321 83.9686 36.6321C83.804 36.879 83.804 36.9613 83.7217 36.9613C83.7217 37.0436 83.804 37.0436 83.7217 36.9613Z" fill="#DC847F"/>
<path d="M85.038 39.2662C84.9556 39.2662 84.8733 39.1839 84.791 39.1839C84.791 39.1839 84.791 39.1839 84.791 39.1016C84.791 39.1016 84.791 39.1016 84.8733 39.1016C84.9556 39.1016 85.038 39.1839 85.2849 39.1016C85.2849 39.1016 85.2849 39.1016 85.3672 39.1016C85.3672 39.1016 85.3672 39.1016 85.3672 39.1839C85.2026 39.2662 85.1203 39.2662 85.038 39.2662Z" fill="#DA4F4F"/>
<path d="M92.3641 69.0629C92.3641 69.1452 91.8702 69.6391 90.9648 70.1329C90.8002 70.2152 90.6356 70.2976 90.471 70.3799H90.3886C90.0594 70.5445 89.6478 70.6268 89.3186 70.7914C88.8247 70.8737 88.2485 71.0384 87.5077 71.1207H87.4254C86.8492 71.203 86.1907 71.203 85.5323 71.203C84.5445 71.203 83.5568 71.1207 82.4867 71.0384H82.4044C81.9105 70.956 81.4167 70.8737 80.8405 70.7914C80.3466 70.7091 79.8528 70.5445 79.3589 70.3799C78.7004 70.1329 78.1242 69.9683 77.6303 69.7214H77.548C76.6426 69.3098 75.9841 68.9806 75.5726 68.6513C75.0787 68.1575 74.9141 67.9105 74.9141 67.9105C74.9141 65.7704 76.1487 61.7372 77.3834 59.1032C78.6181 56.4692 79.0296 56.3046 79.1943 55.9753C79.1943 55.9753 79.6058 56.3869 80.5113 56.7985C80.5113 56.7985 80.5113 56.7985 80.5936 56.7985C81.2521 57.1277 82.1575 57.3746 83.3922 57.5393H83.4745C83.6391 57.5393 83.8037 57.5393 83.9683 57.6216C84.7915 57.7039 85.5323 57.7039 86.1084 57.7039H86.1907C87.0139 57.6216 87.59 57.5393 88.0016 57.3746H88.0839C88.4955 57.21 88.6601 57.1277 88.6601 57.1277C88.6601 57.1277 89.5655 58.7739 90.8002 61.6548C92.0349 64.4534 92.4464 68.8983 92.3641 69.0629Z" fill="#466EB6"/>
<path d="M80.5941 56.7983C79.6063 59.1031 78.207 63.7125 77.7132 69.5566H77.6309C78.1247 63.7125 79.524 59.1031 80.5941 56.7983C80.5118 56.7983 80.5118 56.7983 80.5941 56.7983Z" fill="#6789D3"/>
<path d="M83.393 64.6181C83.1461 66.429 82.8991 68.4044 82.6522 69.8037C82.5699 70.2153 82.5699 70.6268 82.4876 70.9561H82.4053C82.4876 70.7092 82.4876 70.2976 82.5699 69.8037C82.8168 68.4044 83.1461 66.429 83.393 64.6181C83.6399 61.7372 83.4753 59.1855 83.393 57.5393H83.4753C83.5576 59.1855 83.7223 61.7372 83.393 64.6181Z" fill="#6789D3"/>
<path d="M87.5087 71.0383C87.6733 69.3098 87.8379 66.4289 87.344 63.4657C86.8502 60.5025 86.3563 58.6093 86.1094 57.7039H86.1917C86.4386 58.6093 86.9325 60.5025 87.4264 63.4657C87.9202 66.4289 87.7556 69.3098 87.5087 71.0383Z" fill="#6789D3"/>
<path d="M90.4716 70.2975C90.4716 70.2975 90.4716 70.3798 90.4716 70.2975C90.307 68.7335 90.06 66.9227 89.7308 64.7826C89.2369 61.984 88.743 60.1731 88.3315 58.7738C88.1669 58.1977 88.0845 57.7038 87.9199 57.2922H88.0022C88.0845 57.7038 88.2492 58.1977 88.4138 58.7738C88.743 60.0908 89.2369 61.984 89.8131 64.7826C90.1423 66.9227 90.3893 68.7335 90.4716 70.2975Z" fill="#6789D3"/>
<path d="M109.567 33.7513C109.65 33.6689 109.732 33.6689 109.814 33.6689C109.897 33.6689 110.061 33.6689 110.144 33.7513C110.226 33.7513 110.308 33.8336 110.308 33.9159C110.308 33.9982 110.308 34.0805 110.308 34.1628C110.308 34.4921 110.308 34.8213 110.308 35.2329C110.308 35.3975 110.308 35.6444 110.308 35.809C110.308 35.8914 110.308 35.9737 110.308 36.1383V36.2206L110.39 36.1383C110.473 35.9737 110.473 35.7267 110.555 35.5621C110.555 35.3975 110.637 35.1506 110.637 34.9859C110.637 34.8213 110.72 34.5744 110.802 34.4097C110.884 34.2451 110.967 34.0805 111.131 33.9982C111.214 33.9159 111.296 33.9159 111.378 33.9159C111.461 33.9159 111.543 33.9159 111.625 33.9982C111.79 34.0805 111.79 34.2451 111.79 34.3274C111.79 34.4097 111.79 34.4921 111.79 34.5744C111.79 34.6567 111.79 34.6567 111.79 34.6567C111.79 34.6567 111.79 34.6567 111.79 34.5744C111.79 34.4921 111.79 34.4921 111.707 34.4097C111.707 34.3274 111.625 34.2451 111.543 34.2451C111.543 34.2451 111.461 34.2451 111.461 34.1628C111.378 34.1628 111.378 34.1628 111.296 34.1628C111.214 34.2451 111.049 34.3274 110.967 34.4921C110.884 34.6567 110.884 34.8213 110.802 34.9859C110.802 35.1506 110.72 35.3975 110.72 35.5621C110.637 35.7267 110.637 35.9737 110.555 36.1383C110.555 36.2206 110.473 36.2206 110.473 36.3029H110.39C110.39 36.3029 110.39 36.3029 110.39 36.2206V36.1383C110.39 36.056 110.39 35.9737 110.39 35.809C110.39 35.6444 110.39 35.3975 110.39 35.2329C110.39 34.8213 110.39 34.4921 110.39 34.1628C110.39 33.9982 110.308 33.9159 110.226 33.8336C110.144 33.7513 110.061 33.7513 109.979 33.8336C109.897 33.8336 109.814 33.8336 109.814 33.8336C109.65 33.8336 109.567 33.8336 109.567 33.7513C109.567 33.8336 109.567 33.8336 109.567 33.7513C109.567 33.8336 109.567 33.8336 109.567 33.7513Z" fill="#DC847F"/>
<path d="M110.225 36.9613C110.061 36.9613 109.979 36.879 109.979 36.7967C109.979 36.7967 109.979 36.7967 109.979 36.7144C109.979 36.7144 109.979 36.7144 110.061 36.7144C110.061 36.879 110.143 36.879 110.225 36.9613C110.308 36.879 110.39 36.879 110.472 36.7967C110.472 36.7967 110.472 36.7967 110.555 36.7967C110.555 36.7967 110.555 36.7967 110.555 36.879C110.39 36.9613 110.308 36.9613 110.225 36.9613Z" fill="#DA4F4F"/>
<path d="M108.168 34.8213C108.168 34.739 108.086 34.5744 107.921 34.2451C107.921 34.2451 107.921 34.2451 107.921 34.1628C107.921 34.0805 107.921 34.1628 108.003 34.1628C108.086 34.492 108.168 34.6567 108.168 34.8213Z" fill="#DC847F"/>
<path d="M131.133 32.7635C131.215 32.6812 131.297 32.5989 131.38 32.5989C131.462 32.5989 131.627 32.5989 131.791 32.6812C131.956 32.7635 132.038 32.9281 132.038 33.0927C132.038 33.2574 132.038 33.422 132.038 33.5866C132.038 33.7512 131.956 33.9982 131.956 34.1628C131.956 34.3274 131.874 34.5744 131.874 34.739C131.874 34.8213 131.874 34.9859 131.874 35.0682C131.874 35.1505 131.874 35.1505 131.956 35.1505C131.956 35.1505 132.038 35.1505 132.038 35.0682C132.121 34.9036 132.203 34.6567 132.203 34.492C132.285 34.3274 132.285 34.0805 132.367 33.9159C132.45 33.7512 132.532 33.5866 132.697 33.422C132.779 33.3397 132.861 33.2574 132.944 33.2574C133.026 33.2574 133.108 33.1751 133.273 33.2574C133.273 33.2574 133.273 33.2574 133.355 33.2574H133.438C133.438 33.2574 133.52 33.2574 133.52 33.3397C133.602 33.422 133.684 33.422 133.684 33.5043C133.767 33.5866 133.767 33.7512 133.849 33.8335C133.849 33.9159 133.849 33.9982 133.849 34.0805C133.849 34.1628 133.849 34.1628 133.849 34.1628C133.849 34.1628 133.849 34.1628 133.849 34.0805C133.849 33.9982 133.849 33.9982 133.767 33.9159C133.767 33.8336 133.684 33.7512 133.602 33.6689C133.602 33.5866 133.52 33.5866 133.52 33.5866C133.52 33.5866 133.438 33.5866 133.438 33.5043H133.355C133.273 33.5043 133.108 33.5043 132.944 33.6689C132.861 33.7512 132.697 33.9159 132.614 34.0805C132.532 34.2451 132.45 34.4097 132.367 34.6567C132.285 34.8213 132.285 35.0682 132.121 35.2328C132.121 35.2328 132.038 35.3152 131.956 35.3152C131.874 35.3152 131.874 35.2328 131.874 35.1505C131.874 35.0682 131.874 34.9036 131.874 34.8213C131.874 34.5744 131.956 34.4097 131.956 34.2451C131.956 34.0805 131.956 33.8336 132.038 33.6689C132.038 33.5043 132.038 33.3397 132.038 33.1751C132.038 33.0104 131.956 32.9281 131.874 32.8458C131.791 32.7635 131.709 32.7635 131.627 32.8458C131.544 32.8458 131.462 32.8458 131.462 32.9281C131.215 32.8458 131.133 32.8458 131.133 32.7635C131.133 32.8458 131.133 32.8458 131.133 32.7635C131.133 32.7635 131.133 32.8458 131.133 32.7635Z" fill="#DC847F"/>
<path d="M134.837 35.0683C134.837 34.986 135.002 34.739 135.248 34.6567C135.248 34.6567 135.248 34.6567 135.331 34.6567C135.331 34.6567 135.331 34.6567 135.331 34.7391C135.084 34.8214 134.919 35.0683 134.837 35.0683Z" fill="#DC847F"/>
<path d="M131.874 36.1383C131.709 36.1383 131.709 35.9737 131.627 35.9737C131.627 35.9737 131.627 35.9737 131.627 35.8914C131.627 35.8914 131.627 35.8914 131.709 35.8914C131.709 35.8914 131.709 35.8914 131.792 35.9737C131.709 35.9737 131.792 36.056 131.874 36.1383C131.956 36.056 131.956 36.056 132.039 35.9737C132.039 35.9737 132.039 35.9737 132.121 35.9737C132.121 35.9737 132.121 35.9737 132.121 36.056C132.039 36.1383 131.956 36.1383 131.874 36.1383Z" fill="#DA4F4F"/>
<path d="M158.872 40.4184C158.872 40.4184 158.872 40.3361 158.872 40.4184C158.954 40.3361 158.954 40.2538 159.037 40.1715C159.119 40.0891 159.201 40.0068 159.366 40.0068H159.448C159.448 40.0068 159.531 40.0068 159.531 40.0891C159.531 40.0891 159.613 40.0891 159.613 40.1715L159.695 40.2538C159.777 40.4184 159.86 40.583 159.86 40.7476C159.86 40.9123 159.86 41.0769 159.942 41.3238C159.942 41.4884 159.942 41.7354 159.942 41.9C159.942 41.9823 159.942 42.0646 160.024 42.1469C160.024 42.2293 160.189 42.1469 160.189 42.0646C160.271 41.9 160.271 41.6531 160.271 41.4884C160.271 41.3238 160.271 41.0769 160.271 40.9123C160.271 40.7476 160.271 40.5007 160.354 40.3361C160.436 40.1715 160.601 40.0068 160.765 40.0068C160.765 40.0068 160.848 40.0068 160.93 40.0068C160.93 40.0068 160.93 40.0068 161.012 40.0068H161.094C161.177 40.0068 161.259 40.0068 161.341 40.0891C161.424 40.1715 161.506 40.2538 161.588 40.3361C161.671 40.5007 161.753 40.583 161.753 40.583C161.753 40.583 161.753 40.583 161.753 40.6653C161.753 40.6653 161.671 40.583 161.588 40.4184C161.506 40.3361 161.424 40.2538 161.341 40.2538C161.259 40.2538 161.259 40.1715 161.177 40.1715H161.094H161.012C160.848 40.1715 160.765 40.3361 160.683 40.4184C160.601 40.583 160.601 40.7476 160.601 40.9123C160.601 41.0769 160.601 41.3238 160.601 41.4884C160.601 41.6531 160.601 41.9 160.518 42.1469C160.518 42.1469 160.518 42.2292 160.436 42.2292L160.354 42.3116C160.271 42.3116 160.189 42.3116 160.189 42.2292C160.107 42.1469 160.107 41.9823 160.107 41.9C160.107 41.7354 160.107 41.4884 160.107 41.3238C160.107 41.1592 160.107 40.9123 160.024 40.7476C160.024 40.583 159.942 40.4184 159.86 40.3361L159.777 40.2538C159.777 40.2538 159.695 40.2538 159.695 40.1715H159.613H159.531C159.448 40.1715 159.366 40.2538 159.284 40.3361C159.201 40.4184 159.201 40.4184 159.119 40.5007C158.954 40.4184 158.954 40.4184 158.872 40.4184Z" fill="#DC847F"/>
<path d="M160.353 43.0525C160.271 43.0525 160.189 43.0525 160.106 42.9702C160.353 43.0525 160.436 42.9702 160.518 42.9702C160.518 42.9702 160.518 42.9702 160.6 42.9702C160.6 42.9702 160.6 42.9702 160.6 43.0525C160.518 43.0525 160.436 43.0525 160.353 43.0525Z" fill="#DA4F4F"/>
<path d="M84.0505 39.0193C83.8859 38.7724 83.7213 38.4431 83.5566 38.1962C83.5566 38.0316 83.639 37.8669 83.8036 37.8669C84.0505 37.8669 84.3798 38.1139 84.3798 38.4431C84.3798 38.7724 84.2974 38.937 84.0505 39.0193Z" fill="#F39E97"/>
<path d="M86.5198 37.7023C86.4375 38.0315 86.2729 38.3608 86.1083 38.69C85.9437 38.7723 85.6967 38.5254 85.779 38.1961C85.8614 37.7846 86.1906 37.4553 86.4375 37.62C86.4375 37.62 86.5198 37.62 86.5198 37.7023Z" fill="#F39E97"/>
<path d="M83.9681 37.2082C83.8035 37.2082 84.1328 36.7144 84.3797 36.7144C84.7089 36.7144 84.7913 37.0436 84.7089 37.2082C84.6266 37.2905 84.6266 36.879 84.462 36.879C84.462 36.879 84.5443 37.2082 84.3797 37.2082C84.2151 37.2905 84.2151 36.879 84.2151 36.879C84.2151 36.879 84.1328 36.9613 84.0505 37.0436C84.0505 37.1259 83.9681 37.2082 83.9681 37.2082Z" fill="#361410"/>
<path d="M85.6152 37.0437C85.5329 37.0437 85.6975 36.5498 85.9444 36.5498C86.2737 36.5498 86.356 36.9614 86.2737 37.0437C86.1913 37.126 86.1913 36.7144 86.0267 36.7144C86.0267 36.7144 86.1913 37.0437 85.9444 37.126C85.7798 37.2083 85.6975 36.7967 85.6975 36.7967C85.7798 36.7967 85.6975 37.0437 85.6152 37.0437Z" fill="#361410"/>
<path d="M108.827 36.4676C109.238 36.7145 109.732 36.3853 109.65 35.8091C109.567 35.3152 109.238 35.0683 108.827 35.2329C108.497 35.3975 108.415 36.2207 108.827 36.4676Z" fill="#F39E97"/>
<path d="M109.403 34.4098C109.32 34.4098 109.567 33.9983 109.897 33.9983C110.226 34.0806 110.226 34.5745 110.143 34.6568C110.061 34.7391 110.143 34.4099 110.061 34.3275C110.061 34.3275 110.061 34.6568 109.897 34.6568C109.732 34.6568 109.814 34.2452 109.814 34.2452C109.814 34.2452 109.732 34.3275 109.65 34.3275C109.485 34.4099 109.485 34.4098 109.403 34.4098Z" fill="#361410"/>
<path d="M111.049 34.6568C110.966 34.5745 111.213 34.2452 111.378 34.3276C111.625 34.4099 111.625 34.8214 111.542 34.8214C111.46 34.9037 111.542 34.5745 111.378 34.4922C111.378 34.4922 111.378 34.8214 111.296 34.8214C111.131 34.8214 111.213 34.4922 111.213 34.4922L111.131 34.5745C111.131 34.6568 111.131 34.7391 111.049 34.6568Z" fill="#361410"/>
<path d="M111.707 35.6444C111.625 35.8913 111.543 36.1382 111.378 36.3852C111.296 36.5498 111.213 36.7144 111.131 36.879C110.966 36.7967 110.802 36.2205 111.049 35.809C111.296 35.3151 111.543 35.3974 111.707 35.6444Z" fill="#F39E97"/>
<path d="M131.38 34.9036C131.38 35.3152 131.297 35.4798 131.133 35.5621C130.968 35.1506 130.968 34.6567 130.886 34.1628C131.133 34.2452 131.38 34.5744 131.38 34.9036Z" fill="#F39E97"/>
<path d="M133.355 36.1383C133.026 36.303 132.532 35.8914 132.697 35.3152C132.944 34.6567 133.52 34.7391 133.685 35.1506C134.014 35.5622 133.602 35.9737 133.355 36.1383Z" fill="#F39E97"/>
<path d="M131.05 33.4219C130.968 33.4219 131.133 33.0104 131.462 33.0927C131.709 33.175 131.873 33.5042 131.791 33.6689C131.709 33.8335 131.626 33.2573 131.544 33.2573C131.544 33.2573 131.626 33.5042 131.462 33.5865C131.297 33.6689 131.38 33.2573 131.38 33.2573C131.38 33.2573 131.133 33.5042 131.05 33.4219Z" fill="#361410"/>
<path d="M132.615 34.0805C132.532 34.0805 132.697 33.6689 133.026 33.6689C133.356 33.7513 133.52 34.1628 133.356 34.3274C133.273 34.4097 133.273 33.8336 133.026 33.8336C133.026 33.8336 133.109 34.1628 132.944 34.2451C132.779 34.3274 132.779 33.9159 132.779 33.9159C132.862 33.9159 132.697 34.0805 132.615 34.0805Z" fill="#361410"/>
<path d="M159.613 42.2292C159.613 42.6408 159.448 42.8054 159.284 42.8054C159.119 42.4762 158.954 42.0646 158.872 41.6531C159.284 41.2415 159.613 41.7354 159.613 42.2292Z" fill="#F39E97"/>
<path d="M162.164 41.9C162.164 41.9823 162.164 42.0646 162.082 42.2292C161.999 42.3938 161.999 42.6408 161.835 42.8054C161.752 42.8054 161.752 42.8877 161.67 42.8877C161.176 42.97 160.929 42.5585 161.012 42.0646C161.012 41.5707 161.423 41.2415 161.835 41.4061C161.999 41.4061 162.164 41.653 162.164 41.9Z" fill="#F39E97"/>
<path d="M158.954 40.8301C158.79 40.8301 158.954 40.4185 159.283 40.3362C159.613 40.2539 159.777 40.6654 159.777 40.8301C159.777 40.9947 159.695 40.9124 159.613 40.7478C159.613 40.5831 159.448 40.5008 159.366 40.5008C159.366 40.5008 159.448 40.7478 159.283 40.8301C159.119 40.9124 159.119 40.5831 159.119 40.5831C159.119 40.6654 159.037 40.8301 158.954 40.8301Z" fill="#361410"/>
<path d="M160.6 40.7478C160.436 40.7478 160.683 40.2539 161.012 40.2539C161.341 40.2539 161.588 40.7478 161.423 40.8301C161.341 40.9124 161.259 40.3362 161.012 40.4185C161.012 40.4185 161.094 40.7478 160.929 40.8301C160.765 40.9124 160.765 40.6655 160.765 40.6655C160.765 40.6655 160.683 40.8301 160.6 40.7478Z" fill="#361410"/>
<path d="M162.74 53.6706C162.658 53.6706 162.658 53.6706 162.74 53.6706C162.658 53.5883 162.74 53.506 162.74 53.506C162.74 53.506 163.317 53.506 163.975 53.0945C164.798 52.6006 165.292 51.6952 165.374 50.4605C165.374 50.4605 165.374 50.3782 165.457 50.3782C165.457 50.3782 165.539 50.3782 165.539 50.4605C165.374 52.0244 164.634 52.8475 164.057 53.1768C163.317 53.6706 162.74 53.6706 162.74 53.6706Z" fill="#A9A8E1"/>
<path d="M155.333 74.1662C155.333 74.2485 155.25 74.2485 155.333 74.1662C155.25 74.2485 155.168 74.1662 155.168 74.1662C155.086 67.5812 157.391 62.0664 158.378 59.9263C158.461 59.9263 158.461 59.9263 158.543 59.9263C157.473 62.0664 155.168 67.5812 155.333 74.1662Z" fill="#6789D3"/>
<path d="M160.189 70.9561C160.189 72.8493 160.189 74.9894 160.189 77.4587C160.189 77.4587 160.189 77.541 160.107 77.541C160.024 77.541 160.024 77.541 160.024 77.4587C160.024 74.9071 160.024 72.8493 160.024 70.9561C160.024 65.9351 160.024 62.9719 160.354 60.2556C160.436 60.2556 160.436 60.2556 160.518 60.2556C160.189 63.0542 160.189 66.0174 160.189 70.9561Z" fill="#6789D3"/>
<path d="M164.881 74.1663C164.881 74.2486 164.881 74.2486 164.881 74.1663C164.799 74.2486 164.799 74.2486 164.881 74.1663C164.799 74.2486 164.717 74.2486 164.717 74.1663C164.387 69.3099 163.729 64.6182 162.741 60.1733C162.824 60.1733 162.824 60.1733 162.906 60.1733C163.894 64.6182 164.552 69.3099 164.881 74.1663Z" fill="#6789D3"/>
<path d="M168.749 68.4868C168.749 68.5691 168.667 68.5691 168.749 68.4868C168.667 68.5691 168.585 68.5691 168.585 68.4868C168.42 65.3589 166.033 61.4903 164.963 59.7618C165.045 59.7618 165.045 59.7618 165.128 59.6794C166.198 61.4903 168.502 65.4413 168.749 68.4868Z" fill="#6789D3"/>
<path d="M98.6196 44.4518C98.6196 44.4518 96.891 38.0315 93.5163 34.1628C93.5163 34.2452 92.6932 35.5621 91.87 35.6444C92.117 36.1383 92.9401 37.9492 93.6809 39.5954C94.504 41.4886 95.4917 43.7933 94.9156 43.9579C94.2571 44.1225 91.9524 42.2294 89.9769 41.4063C89.5653 41.2416 89.1538 41.077 88.7422 40.9947C87.6721 40.7478 86.4375 40.6655 85.2028 40.6655C85.1205 40.8301 84.8736 40.9124 84.7089 40.8301C84.5443 41.1593 84.2151 41.4063 83.8035 41.6532C82.8981 42.1471 83.8035 43.3817 83.8858 44.2049C83.8858 45.028 83.0627 46.0157 81.2518 46.345C80.6757 46.4273 80.0172 46.5096 79.441 46.5096C79.5233 46.6742 79.6056 46.7565 79.6879 46.9211C80.1818 48.4851 80.2641 50.5428 80.0172 52.2714C79.7702 53.9999 79.2764 55.8931 79.2764 55.8931C79.2764 55.8931 80.5934 57.2924 84.0504 57.5393C87.5075 57.8686 88.6599 57.0455 88.7422 56.9631C88.8245 56.8808 89.3184 53.9176 89.8122 53.0122C90.3061 52.1068 91.5408 50.7075 90.9646 49.1435C90.3884 47.5796 89.8122 46.345 90.5531 46.0157C91.2939 45.6865 93.0224 47.0034 95.0802 47.3327C96.9734 47.7443 99.2781 47.2504 98.6196 44.4518Z" fill="#FDBB46"/>
<path d="M93.27 32.6811C93.1054 32.7634 93.0231 33.5865 92.9407 33.5865C92.8584 33.5865 92.7761 32.1872 92.6115 32.2695C92.4469 32.2695 92.5292 33.6688 92.5292 33.7511C92.5292 33.8335 92.0353 31.7757 91.7884 31.9403C91.5414 32.1872 92.0353 33.9981 91.953 34.0804C91.8707 34.1627 91.2122 32.4342 91.1299 32.8457C91.0476 33.2573 91.7061 34.5743 91.6238 34.8212C91.6238 34.9858 90.5537 34.6566 90.5537 34.9858C90.5537 35.3151 91.4591 35.562 91.6238 35.562C91.7061 35.6443 91.7884 35.6443 91.8707 35.6443C92.6938 35.6443 93.5169 34.245 93.5169 34.1627C93.5169 34.0804 93.4346 32.5988 93.27 32.6811Z" fill="#ECB7B0"/>
<path d="M180.773 32.2729C180.773 36.7781 177.224 40.3232 172.689 40.1861C167.969 40.041 164 35.9947 164 31.1493C164 26.3064 167.969 22.7877 172.689 23.2757C177.226 23.7478 180.773 27.7677 180.773 32.2729Z" fill="url(#paint0_linear)"/>
<path d="M182 31.8862C182 36.3914 178.451 39.9365 173.917 39.7994C169.196 39.6543 165.228 35.608 165.228 30.7625C165.228 25.9197 169.196 22.401 173.917 22.8889C178.451 23.3585 182 27.3783 182 31.8862Z" fill="url(#paint1_linear)"/>
<path d="M181.644 31.8611C181.644 36.1685 178.249 39.5527 173.917 39.4129C169.417 39.2678 165.637 35.4062 165.637 30.7902C165.637 26.1742 169.417 22.8164 173.917 23.2754C178.249 23.7159 181.644 27.5537 181.644 31.8611Z" fill="url(#paint2_linear)"/>
<path d="M181.389 31.844C181.389 36.009 178.103 39.2771 173.917 39.1373C169.571 38.9922 165.929 35.2625 165.929 30.8074C165.929 26.3523 169.573 23.1105 173.917 23.5484C178.103 23.9731 181.389 27.6791 181.389 31.844Z" fill="url(#paint3_linear)"/>
<path d="M173.871 24.9671C174.094 24.9882 174.275 25.1861 174.275 25.4129V26.1805C174.721 26.2306 175.168 26.3071 175.614 26.41C175.943 26.4865 176.27 26.5788 176.597 26.6843C176.791 26.7476 176.924 26.9428 176.905 27.1459L176.809 28.1087C176.785 28.3645 176.53 28.5149 176.291 28.4067C176.076 28.3118 175.858 28.23 175.632 28.1641C175.239 28.0454 174.825 27.9689 174.389 27.9346L174.275 27.924V30.1212C175.439 30.443 176.291 30.8783 176.844 31.4243C177.394 31.9676 177.667 32.6455 177.667 33.4606C177.667 34.3416 177.364 35.0459 176.759 35.576C176.148 36.1115 175.292 36.4096 174.185 36.4755V37.3222C174.185 37.5464 174.004 37.7231 173.781 37.7126H173.773C173.55 37.7047 173.369 37.5148 173.369 37.2879V36.4518L173.189 36.4438C172.671 36.4201 172.174 36.3674 171.698 36.2856C171.348 36.2249 171.002 36.1458 170.668 36.0508C170.466 35.9928 170.325 35.8002 170.344 35.5945L170.455 34.3574C170.479 34.091 170.75 33.9354 171.005 34.0356C171.303 34.1517 171.605 34.2519 171.911 34.331C172.386 34.455 172.87 34.5368 173.359 34.5711L173.367 32.1285C172.251 31.8542 171.414 31.448 170.867 30.9099C170.314 30.3692 170.038 29.6781 170.038 28.8367C170.038 27.9662 170.338 27.2936 170.936 26.8241C171.531 26.3546 172.376 26.1225 173.468 26.1225V25.3391C173.468 25.1122 173.648 24.946 173.871 24.9671ZM173.468 27.9003C173.122 27.924 172.854 28.019 172.66 28.1825C172.466 28.3461 172.37 28.565 172.37 28.8419C172.37 29.1031 172.461 29.322 172.639 29.4961C172.817 29.6702 173.093 29.81 173.468 29.9155V27.9003V27.9003ZM174.182 32.3237V34.5632C174.557 34.5632 174.844 34.4761 175.045 34.2967C175.245 34.12 175.346 33.8668 175.346 33.5424C175.346 33.2469 175.253 32.999 175.067 32.8038C174.881 32.6112 174.586 32.4503 174.182 32.3237Z" fill="url(#paint4_linear)"/>
<path opacity="0.3" d="M172.561 32.8648C172.814 30.388 175.106 29.3408 174.806 27.0618C174.623 25.6586 173.55 24.4742 172.354 23.551C168.728 23.9282 165.926 26.9088 165.926 30.81C165.926 35.2625 169.57 38.9949 173.914 39.1399C174.336 39.1531 174.748 39.132 175.149 39.0793C173.425 37.3753 172.346 34.9934 172.561 32.8648Z" fill="url(#paint5_linear)"/>
<defs>
<linearGradient id="paint0_linear" x1="169.512" y1="32.6261" x2="159.742" y2="35.7837" gradientUnits="userSpaceOnUse">
<stop stop-color="#FCB148"/>
<stop offset="0.0520724" stop-color="#FDBA46"/>
<stop offset="0.1424" stop-color="#FFC244"/>
<stop offset="0.3183" stop-color="#FFC444"/>
<stop offset="0.4849" stop-color="#FDB946"/>
<stop offset="0.7754" stop-color="#F99C4D"/>
<stop offset="0.8658" stop-color="#F8924F"/>
<stop offset="1" stop-color="#F8924F"/>
</linearGradient>
<linearGradient id="paint1_linear" x1="177.426" y1="22.9578" x2="168.794" y2="42.1358" gradientUnits="userSpaceOnUse">
<stop stop-color="#FFDB44"/>
<stop offset="1" stop-color="#FEEF06"/>
</linearGradient>
<linearGradient id="paint2_linear" x1="175.819" y1="43.1579" x2="174.157" y2="34.0126" gradientUnits="userSpaceOnUse">
<stop stop-color="#FCB148"/>
<stop offset="0.0520724" stop-color="#FDBA46"/>
<stop offset="0.1424" stop-color="#FFC244"/>
<stop offset="0.3183" stop-color="#FFC444"/>
<stop offset="0.4849" stop-color="#FDB946"/>
<stop offset="0.7754" stop-color="#F99C4D"/>
<stop offset="0.8658" stop-color="#F8924F"/>
<stop offset="1" stop-color="#F8924F"/>
</linearGradient>
<linearGradient id="paint3_linear" x1="172.246" y1="28.3633" x2="179.111" y2="43.0393" gradientUnits="userSpaceOnUse">
<stop stop-color="#FCB148"/>
<stop offset="0.0520724" stop-color="#FDBA46"/>
<stop offset="0.1424" stop-color="#FFC244"/>
<stop offset="0.3183" stop-color="#FFC444"/>
<stop offset="0.4849" stop-color="#FDB946"/>
<stop offset="0.7754" stop-color="#F99C4D"/>
<stop offset="0.8658" stop-color="#F8924F"/>
<stop offset="1" stop-color="#F8924F"/>
</linearGradient>
<linearGradient id="paint4_linear" x1="171.969" y1="25.213" x2="175.416" y2="38.2206" gradientUnits="userSpaceOnUse">
<stop stop-color="#FFDB44"/>
<stop offset="1" stop-color="#FEEF06"/>
</linearGradient>
<linearGradient id="paint5_linear" x1="170.203" y1="29.3107" x2="177.054" y2="43.957" gradientUnits="userSpaceOnUse">
<stop stop-color="#FCB148"/>
<stop offset="0.0520724" stop-color="#FDBA46"/>
<stop offset="0.1424" stop-color="#FFC244"/>
<stop offset="0.3183" stop-color="#FFC444"/>
<stop offset="0.4849" stop-color="#FDB946"/>
<stop offset="0.7754" stop-color="#F99C4D"/>
<stop offset="0.8658" stop-color="#F8924F"/>
<stop offset="1" stop-color="#F8924F"/>
</linearGradient>
<clipPath id="clip0">
<rect x="59.0508" y="50.1858" width="16.5" height="16.5" rx="3" transform="rotate(10 59.0508 50.1858)" fill="white"/>
</clipPath>
</defs>
</svg>
