<svg width="110" height="110" viewBox="0 0 110 110" fill="none" xmlns="http://www.w3.org/2000/svg">
<path d="M51.9621 5.63122C26.1608 4.85128 3.8129 24.051 0.434334 49.2476C-3.25477 76.799 17.0652 101.585 42.0659 105.556C73.1651 110.493 103.329 81.9263 100.62 50.9344C98.581 27.585 78.1899 6.42607 51.9621 5.63122Z" fill="#F4F7FA"/>
<path d="M81.251 64.2079C80.6674 64.1594 79.4439 63.5474 79.1895 63.2563C77.5021 61.3158 74.1123 57.8901 74.1385 55.1808C74.1422 54.7181 76.1925 54.1882 76.4619 53.7516C77.6854 53.0985 78.1531 52.9493 79.0099 51.7551C81.5429 48.2361 75.0851 42.172 82.134 39.5934C87.2973 37.7014 91.8132 39.2911 90.8592 31.2008C89.9013 23.1104 95.6408 8.00435 104.512 13.2512C109.604 16.2627 104.927 23.4089 107.715 28.3796C110.36 33.1039 108.497 37.1865 103.483 40.3398C98.4694 43.4931 101.332 45.594 103.053 50.1206C105.118 55.5577 96.6472 56.9459 92.6813 57.2557C89.4823 57.4982 81.5167 60.2784 81.251 64.2079Z" fill="#A8C2FB"/>
<path d="M76.7499 59.45L76.6863 59.3343C85.1159 54.7219 91.8992 47.6615 96.3067 38.9106C100.501 30.5851 102.503 20.8975 102.091 10.8928L102.222 10.889C102.634 20.9162 100.628 30.6299 96.4227 38.974C92.0077 47.7436 85.202 54.8264 76.7499 59.45Z" fill="#FCFDFE"/>
<path d="M85.6469 53.0726L85.602 52.9494C90.7914 51.1171 99.135 50.7626 104.205 52.1546L104.171 52.2814C99.1237 50.8932 90.8139 51.2515 85.6469 53.0726Z" fill="#FCFDFE"/>
<path d="M80.0238 57.6103L79.9302 57.517C81.9506 55.5131 82.8785 52.5688 82.684 48.7624C82.5418 45.9711 81.816 42.7917 80.5214 39.3137L80.6449 39.2689C81.9432 42.7618 82.6765 45.9524 82.8149 48.7587C83.0132 52.6024 82.0704 55.5803 80.0238 57.6103Z" fill="#FCFDFE"/>
<path d="M96.9761 37.765L96.8788 37.6755C100.493 33.7012 106.004 32.4212 109.989 32.0443L110 32.1749C106.038 32.5518 100.564 33.8206 96.9761 37.765Z" fill="#FCFDFE"/>
<path d="M100.957 26.1409L100.826 26.1371C100.89 23.5436 100.217 18.3154 95.0084 12.4342L95.1094 12.3484C100.344 18.2632 101.021 23.5286 100.957 26.1409Z" fill="#FCFDFE"/>
<path d="M87.181 63.2527C84.3974 63.3311 81.6062 63.346 78.8076 63.2975C78.7702 63.346 76.8433 57.6178 79.1032 54.0428C83.5892 47.0943 78.9124 42.3849 77.2886 39.3958C74.8117 35.2125 74.8454 30.2083 79.4025 29.335C84.4385 28.2678 83.8848 19.7408 81.6249 12.2885C80.2593 8.70233 82.9794 3.5824 86.3018 1.93671C89.6766 0.16787 93.6575 1.877 96.0558 9.08296C99.2211 17.3599 93.8633 23.6255 92.2994 28.3275C90.7579 32.9436 96.6732 35.4252 93.0552 39.9107C90.0433 43.8589 85.9314 47.0421 88.3222 50.9193C90.7542 54.7481 90.9412 58.1887 87.181 63.2527Z" fill="#CCDCFF"/>
<path d="M83.4959 64.2566C83.4847 64.2043 83.8962 51.3784 86.2459 38.545C86.519 36.4888 86.8445 34.4028 87.1588 32.3876C87.9969 26.9916 88.8649 21.4089 88.7938 16.0166C88.7153 9.98983 87.4432 4.77288 84.9139 0.0634398L85.0299 0C87.5741 4.7281 88.8462 9.96371 88.9285 16.0128C88.9996 21.4164 88.1316 27.0028 87.2898 32.4063C86.9755 34.4214 86.6537 36.5037 86.3768 38.5637C84.0347 51.3635 83.6194 64.1596 83.6268 64.2342L83.4959 64.2566Z" fill="#FCFDFE"/>
<path d="M88.6856 21.9835L88.5734 21.9126C91.0091 18.0316 93.8189 12.6281 95.3267 9.7248C96.5427 7.38501 96.5539 7.38501 96.625 7.38501L96.6288 7.51562V7.44845L96.6662 7.50069C96.5951 7.57533 96.0863 8.54931 95.4427 9.78451C93.9349 12.6915 91.1213 18.0951 88.6856 21.9835Z" fill="#FCFDFE"/>
<path d="M88.7717 17.2219C86.3473 10.2734 81.2775 8.19109 80.8547 8.19109H80.851V8.14257L80.7911 8.08286C80.8211 8.05301 80.866 8.05674 80.9371 8.0754C82.0408 8.34035 86.6204 10.6615 88.8952 17.1808L88.7717 17.2219Z" fill="#FCFDFE"/>
<path d="M84.9701 46.8779C84.768 43.232 83.2565 39.5339 80.4765 35.8917C79.0286 33.9923 77.2888 32.1861 75.3058 30.5255C75.1636 30.4061 75.1112 30.3613 75.0925 30.3427L75.1936 30.2568C75.2048 30.2718 75.2908 30.3427 75.3918 30.4248C77.3786 32.0928 79.1259 33.9027 80.5813 35.8134C83.3762 39.4779 84.8952 43.1985 85.101 46.8705L84.9701 46.8779Z" fill="#FCFDFE"/>
<path d="M85.6622 42.8999L85.5387 42.8514C87.8659 37.0411 94.6492 35.4738 94.7353 35.4738L94.7951 35.526L94.7615 35.5969L94.7315 35.5409L94.739 35.6044C94.6717 35.6156 87.9856 37.1008 85.6622 42.8999ZM94.6978 35.4812L94.7278 35.5409L94.6978 35.4812Z" fill="#FCFDFE"/>
<path d="M83.5895 62.1556C83.3725 60.5921 82.3473 58.0396 78.6994 54.7631C78.4973 54.5803 78.4973 54.5802 78.4973 54.5467L78.5647 54.5429L78.6208 54.5056C78.632 54.5205 78.7068 54.5877 78.7929 54.6623C82.4708 57.9649 83.5072 60.5473 83.7242 62.1333L83.5895 62.1556Z" fill="#FCFDFE"/>
<path d="M83.8966 59.088L83.7656 59.0731C83.9003 57.8267 84.8469 55.2668 89.6585 52.1209C89.7258 52.0761 89.767 52.05 89.7819 52.0388L89.8605 52.1433C89.8455 52.1545 89.8006 52.1844 89.7296 52.2291C84.9629 55.3489 84.0275 57.8678 83.8966 59.088Z" fill="#FCFDFE"/>
<path d="M40.0012 91.0914C40.5661 90.9048 41.6324 89.998 41.812 89.6509C43.0093 87.3223 45.5386 83.1055 44.8501 80.4261C44.7341 79.9671 42.5753 79.941 42.2012 79.5715C40.828 79.2207 40.3304 79.1834 39.1893 78.2094C35.8219 75.336 40.7495 67.7644 33.1355 66.9135C27.557 66.2903 23.4713 68.9585 22.4498 60.7077C21.4284 52.4568 12.0672 38.8808 4.55806 46.2286C0.247864 50.4454 6.61587 56.3938 5.0669 61.9914C3.59275 67.3128 6.43628 70.9065 12.1682 72.8171C17.9039 74.7277 15.5805 77.5004 14.9744 82.4002C14.2485 88.2888 22.9811 87.6134 26.9883 86.9603C30.2097 86.4379 38.7814 87.2663 40.0012 91.0914Z" fill="#7D9FE9"/>
<path d="M43.3019 85.2884C33.8023 82.7546 25.339 77.3846 18.8251 69.7607C12.6292 62.51 8.28158 53.3747 6.24622 43.3401L6.37717 43.314C8.40505 53.3262 12.7452 62.4428 18.9261 69.6749C25.4213 77.2764 33.8621 82.6314 43.3356 85.1615L43.3019 85.2884Z" fill="#FCFDFE"/>
<path d="M14.3915 84.8221L14.3279 84.7064C19.0085 82.1016 27.3632 80.4336 32.9493 80.9933L32.9343 81.1239C27.3707 80.5679 19.0534 82.2248 14.3915 84.8221Z" fill="#FCFDFE"/>
<path d="M39.6124 84.2587C37.0907 82.7436 35.4332 80.0194 34.6887 76.1645C34.1461 73.3508 34.0938 70.0147 34.5315 66.2382L34.6625 66.2531C34.2247 70.0147 34.2771 73.3396 34.8196 76.1384C35.5567 79.956 37.1917 82.6503 39.6798 84.143L39.6124 84.2587Z" fill="#FCFDFE"/>
<path d="M17.9869 68.6973C13.4746 65.6597 7.73895 65.7231 3.72433 66.3128L3.70563 66.1821C7.74643 65.5888 13.5158 65.5254 18.0617 68.5891L17.9869 68.6973Z" fill="#FCFDFE"/>
<path d="M11.2147 58.144C10.515 55.5728 9.90513 50.1917 13.6578 43.0641L13.7738 43.1238C10.0436 50.2141 10.6497 55.5542 11.3419 58.1104L11.2147 58.144Z" fill="#FCFDFE"/>
<path d="M88.5159 15.8933L20.1327 11.9489C18.5576 11.8705 17.1395 13.5871 17.1395 15.0276V102.857C17.1395 104.854 19.1824 105.257 20.7575 105.096L88.5159 98.1928C89.7543 98.0659 90.7533 96.9352 90.7533 95.6702V18.3003C90.7533 17.0315 89.7543 15.953 88.5159 15.8933Z" fill="url(#paint0_linear)"/>
<path d="M89.6421 15.1956L21.1205 11.8334C19.5453 11.755 18.262 12.8708 18.262 14.3187V102.831C18.262 104.283 19.5453 105.328 21.1205 105.164L89.6421 98.1295C90.8805 98.0026 91.8795 96.8644 91.8795 95.5845V17.6213C91.8795 16.3413 90.8805 15.2553 89.6421 15.1956Z" fill="#D8DEE8"/>
<path opacity="0.3" d="M21.1204 103.97C20.2711 104.055 19.5789 103.488 19.5789 102.708V14.3782C19.5789 13.5983 20.2711 12.9938 21.1204 13.0348L89.642 16.2628C90.3117 16.2926 90.8542 16.8822 90.8542 17.5726V95.6925C90.8542 96.3829 90.3117 97.0024 89.642 97.0695L21.1204 103.97Z" fill="#729EFF"/>
<path d="M85.2271 94.9724L26.6205 100.604V19.1177L85.2271 21.3194V94.9724Z" fill="white"/>
<path opacity="0.3" d="M61.7863 21.715L38.3646 22.0061L38.8884 16.7369C38.9296 16.054 39.4235 15.4905 40.0782 15.3898L44.0442 14.7815C44.5119 14.7106 44.9122 14.4009 45.118 13.9605L45.5483 13.0276L55.9234 13.6657L61.7863 21.715Z" fill="#97A6B7"/>
<path d="M74.2945 18.3004C74.1823 17.7033 73.7034 17.2854 73.101 17.2593L69.3595 17.0913C67.6609 17.0167 66.4149 15.6397 66.4785 13.897L66.6245 9.85551C66.6507 9.10916 66.1156 8.50835 65.3823 8.46731L64.1513 8.39267C63.2122 8.3367 62.5911 7.51198 62.7221 6.5604C62.9503 4.89605 61.8092 3.4556 60.1479 3.34365C58.4755 3.2317 56.9153 4.50421 56.6684 6.19095C56.6309 6.44098 56.5449 6.691 56.4065 6.91118C56.0211 7.53064 55.3439 7.87023 54.6816 7.82918L53.4133 7.75455C52.6463 7.70977 51.9129 8.24713 51.7184 9.00467L50.6595 13.1021C50.2031 14.8747 48.482 16.1584 46.6561 16.0763L42.5517 15.8934C41.8783 15.8636 41.2198 16.2554 40.9092 16.8674L38.4361 21.7597C38.2341 22.159 38.4847 22.5956 38.9262 22.6068L74.5302 23.786C74.9193 23.7972 75.2523 23.4129 75.1775 23.0248L74.2945 18.3004ZM59.6391 6.83654C59.149 6.80669 58.8085 6.38127 58.8796 5.88868C58.9507 5.3961 59.4071 5.01919 59.8973 5.05278C60.3874 5.08636 60.7241 5.50805 60.653 6.00064C60.582 6.49322 60.1292 6.87013 59.6391 6.83654Z" fill="url(#paint1_linear)"/>
<path d="M74.5037 18.4086C74.3914 17.8115 73.9125 17.3935 73.3101 17.3674L69.5686 17.1995C67.87 17.1248 66.6241 15.7478 66.6877 14.0051L66.8336 9.96366C66.8598 9.21732 66.3248 8.61651 65.5914 8.57546L64.3605 8.50083C63.4214 8.44485 62.8003 7.62014 62.9312 6.66855C63.1595 5.0042 62.0183 3.56375 60.3571 3.4518C58.6847 3.33985 57.1245 4.61237 56.8775 6.29911C56.8401 6.54913 56.754 6.79916 56.6156 7.01933C56.2302 7.6388 55.553 7.97838 54.8908 7.93733L53.6224 7.8627C52.8554 7.81792 52.1221 8.35529 51.9275 9.11283L50.8724 13.214C50.416 14.9866 48.6949 16.2703 46.869 16.1882L42.7646 16.0053C42.0912 15.9755 41.4327 16.3673 41.1221 16.9793L38.6453 21.8716C38.4432 22.2709 38.6939 22.7075 39.1354 22.7187L74.7394 23.8979C75.1285 23.9091 75.4615 23.5248 75.3867 23.1367L74.5037 18.4086ZM59.8483 6.94843C59.3581 6.91857 59.0176 6.49316 59.0887 6.00057C59.1598 5.50798 59.6163 5.13108 60.1064 5.16466C60.5966 5.19825 60.9333 5.61993 60.8622 6.11252C60.7911 6.60138 60.3384 6.97828 59.8483 6.94843Z" fill="#97A6B7"/>
<path opacity="0.5" d="M68.4088 20.6588C65.2323 18.7034 62.7965 20.0916 60.8173 17.8861C58.6996 15.5239 60.1289 12.4154 57.9364 10.9488C56.5333 10.0084 55.2799 10.8369 53.6486 10.5831C53.05 10.4898 52.4139 10.2547 51.7517 9.79199L50.8724 13.214C50.416 14.9866 48.6949 16.2703 46.869 16.1882L42.7646 16.0053C42.0912 15.9755 41.4327 16.3673 41.1221 16.9793L38.6453 21.8716C38.4432 22.2709 38.6939 22.7075 39.1354 22.7187L71.4918 23.7897C70.6761 22.5022 69.6622 21.4275 68.4088 20.6588Z" fill="white"/>
<path d="M68.6937 31.9137L46.7648 31.6749V29.0515L68.6937 29.3874V31.9137Z" fill="#97A6B7"/>
<path d="M46.5897 60.2263L43.9033 60.327V36.7052L46.5897 36.7127V60.2263Z" fill="#D8DEE8"/>
<path d="M51.7148 60.0362L49.0771 60.1332V44.042L51.7148 44.0159V60.0362Z" fill="#D8DEE8"/>
<path d="M56.755 59.8495L54.1584 59.9465V39.7877L56.755 39.7803V59.8495Z" fill="#D8DEE8"/>
<path d="M61.7054 59.6667L59.1537 59.76V43.8479L61.7054 43.8218V59.6667Z" fill="#D8DEE8"/>
<path d="M66.5766 59.4876L64.0661 59.5771V48.1207L66.5766 48.0759V59.4876Z" fill="#D8DEE8"/>
<path d="M71.3619 59.3092L68.8962 59.4024V36.7695L71.3619 36.7733V59.3092Z" fill="#D8DEE8"/>
<path d="M76.072 59.1329L73.6438 59.2225V52.483L76.072 52.4196V59.1329Z" fill="#D8DEE8"/>
<path d="M80.7039 58.9612L78.3168 59.0507V41.187L80.7039 41.1758V58.9612Z" fill="#D8DEE8"/>
<path d="M80.705 68.5667L33.8204 71.108V68.6414L80.705 66.2904V68.5667Z" fill="#D8DEE8"/>
<path d="M80.705 64.2118L33.8204 66.3874V63.9207L80.705 61.9354V64.2118Z" fill="#D8DEE8"/>
<path d="M80.705 86.1842L33.8204 90.1958V87.7291L80.705 83.9078V86.1842Z" fill="#D8DEE8"/>
<path opacity="0.5" d="M51.7977 73.5001V82.8667L33.2399 84.2699V74.6084L51.7977 73.5001Z" fill="#D8DEE8"/>
<path d="M33.2399 80.2506V84.2735L51.8015 82.8666V75.6084C50.7389 75.2725 49.4668 75.1307 48.4902 75.8248C46.4511 77.2839 46.7093 78.0377 44.5804 77.7952C42.9154 77.6048 41.0596 77.4481 39.6304 78.6572C38.7437 79.4073 38.2872 80.176 37.0113 80.1536C35.8066 80.1275 34.4035 79.3774 33.2399 80.2506Z" fill="#D8DEE8"/>
<path d="M80.7042 73.4516L56.1563 74.9928V73.2389L80.7042 71.7686V73.4516Z" fill="#D8DEE8"/>
<path d="M80.7042 77.0154L56.1563 78.7134V77.0602L80.7042 75.4294V77.0154Z" fill="#D8DEE8"/>
<path d="M80.7042 80.6762L56.1563 82.5346V80.7807L80.7042 78.9932V80.6762Z" fill="#D8DEE8"/>
<path d="M39.5325 38.8174L33.7033 38.8211V36.5784L39.5325 36.5933V38.8174Z" fill="#D8DEE8"/>
<path d="M39.5325 44.3105L33.7033 44.3665V42.1237L39.5325 42.0864V44.3105Z" fill="#D8DEE8"/>
<path d="M39.5325 49.6728L33.7033 49.7811V47.5383L39.5325 47.4487V49.6728Z" fill="#D8DEE8"/>
<path d="M39.5325 55.1662L33.7033 55.3304V53.0839L39.5325 52.9421V55.1662Z" fill="#D8DEE8"/>
<path d="M39.5325 60.5285L33.7033 60.7413V58.4985L39.5325 58.3044V60.5285Z" fill="#D8DEE8"/>
<path d="M41.22 64.6306L41.1115 101.705C41.1077 103.523 39.6336 105.176 37.7853 105.366L10.6109 108.143C8.51939 108.355 6.80579 106.915 6.80579 104.956V65.0485C6.80579 63.1976 8.32483 61.6676 10.2554 61.481C10.3789 61.4698 10.5024 61.4661 10.6296 61.4661L37.905 61.3355C39.7533 61.328 41.2275 62.7983 41.22 64.6306Z" fill="#8AA8EB"/>
<path d="M43.147 64.6037L43.0347 101.566C43.031 103.38 41.6391 105.018 39.8058 105.205L12.8147 107.959C10.7345 108.172 8.94977 106.742 8.94977 104.791L8.95351 65.0179C8.95351 63.1707 10.5062 61.6482 12.4219 61.4653C12.5453 61.4541 12.71 61.4504 12.8372 61.4504L39.9293 61.3198C41.7701 61.3086 43.1544 62.7789 43.147 64.6037Z" fill="#93B1F2"/>
<g opacity="0.3">
<path opacity="0.3" d="M43.147 64.5476L43.117 73.8358L8.94977 74.9553V64.958C8.94977 63.1556 10.4314 61.689 12.2834 61.4465C12.4481 61.4241 12.6613 61.4428 12.8334 61.4428L39.9255 61.3121C41.7701 61.3084 43.1544 62.7227 43.147 64.5476Z" fill="url(#paint2_linear)"/>
<path opacity="0.3" d="M43.1287 70.9847L43.1175 74.8434C39.8025 75.8882 33.7039 76.7353 26.7036 77.004C23.6131 77.1234 20.6237 77.1197 17.9223 77.0078C14.3267 76.8585 11.2886 76.5189 8.9577 76.0412V71.8878C9.83695 71.6714 10.6414 71.4736 11.5992 71.2833C13.6795 70.8728 16.1825 70.5295 18.9213 70.2757C21.3682 70.0481 24.0209 69.8951 26.756 69.8316C30.2767 69.7495 33.5468 69.8316 36.3604 70.0369C36.5774 70.0518 36.7981 70.0705 37.0114 70.0854C37.6848 70.1414 38.3284 70.2011 38.942 70.272C39.159 70.2981 39.3723 70.3205 39.5818 70.3466C40.0644 70.4063 40.476 70.4735 40.9137 70.5407C41.7518 70.675 42.4964 70.8205 43.1287 70.9847Z" fill="url(#paint3_linear)"/>
</g>
<path d="M41.4742 71.8766C41.4742 72.4289 41.0215 72.8917 40.464 72.9066L12.4253 73.7649C11.7968 73.7835 11.2842 73.3208 11.2842 72.7312L11.2879 66.0514C11.2879 65.4618 11.8005 64.9767 12.4291 64.9692L40.4902 64.6296C41.0477 64.6221 41.4967 65.0662 41.4929 65.6185L41.4742 71.8766Z" fill="white"/>
<path d="M40.8385 71.7536C40.8385 72.1044 40.5504 72.3954 40.1987 72.4029L12.2947 73.2239C11.8981 73.2351 11.5764 72.944 11.5764 72.5708L11.5801 65.9209C11.5801 65.5477 11.9019 65.2417 12.3022 65.238L40.2212 64.8835C40.5729 64.8797 40.8572 65.1596 40.8572 65.5104L40.8385 71.7536Z" fill="#CCDCFF"/>
<path opacity="0.3" d="M36.9816 68.0514C36.9816 68.223 36.8395 68.3387 36.6636 68.3425H36.6487C36.4728 68.3462 36.3306 68.238 36.3306 68.0663L36.3344 66.7789C36.3344 66.6035 36.4765 66.4729 36.6524 66.4729H36.6674C36.8432 66.4691 36.9854 66.596 36.9854 66.7714L36.9816 68.0514Z" fill="#A8C2FB"/>
<path opacity="0.3" d="M39.5668 68.0067C39.5668 68.1784 39.4246 68.2978 39.2525 68.3015H39.2376C39.0655 68.3053 38.9233 68.1933 38.9233 68.0216L38.927 66.7379C38.927 66.5663 39.0692 66.4319 39.2413 66.4282H39.2563C39.4284 66.4244 39.5706 66.5551 39.5706 66.7267L39.5668 68.0067Z" fill="#5880D8"/>
<g opacity="0.3">
<path opacity="0.3" d="M36.9738 70.9325C36.9738 71.1041 36.8317 71.2795 36.6558 71.2833H36.6408C36.465 71.287 36.3228 71.1228 36.3228 70.9474L36.3266 69.6226C36.3266 69.451 36.4687 69.2793 36.6446 69.2756H36.6596C36.8354 69.2718 36.9776 69.436 36.9776 69.6077L36.9738 70.9325Z" fill="url(#paint4_linear)"/>
<path opacity="0.3" d="M39.5588 70.8802C39.5588 71.0518 39.4166 71.1078 39.2445 71.2422H39.2296C39.0575 71.2459 38.9153 71.0668 38.9153 70.8951L38.919 69.5106C38.919 69.339 39.0612 69.1039 39.2333 69.1001H39.2483C39.4204 69.0964 39.5626 69.324 39.5626 69.4957L39.5588 70.8802Z" fill="url(#paint5_linear)"/>
</g>
<g opacity="0.3">
<path opacity="0.3" d="M38.8717 65.9953C38.8717 66.167 38.7595 66.3125 38.5836 66.3125L37.3714 66.3349C37.1955 66.3386 37.1506 66.2006 37.1506 66.0252V66.0102C37.1506 65.8386 37.2142 65.6968 37.3863 65.693L38.6248 65.6744C38.8006 65.6707 38.868 65.8087 38.868 65.9804V65.9953H38.8717Z" fill="url(#paint6_linear)"/>
<path opacity="0.3" d="M38.8718 71.4922C38.8718 71.6639 38.752 71.8094 38.5762 71.8131L37.3003 71.8505C37.1245 71.8542 37.016 71.7199 37.016 71.5445V71.5295C37.016 71.3579 37.1357 71.2123 37.3116 71.2086L38.5874 71.175C38.7633 71.1713 38.868 71.3056 38.868 71.4773V71.4922H38.8718Z" fill="url(#paint7_linear)"/>
</g>
<path opacity="0.3" d="M28.791 103.928C28.6788 104.548 28.4992 105.171 28.2223 105.764C28.125 105.973 28.0128 106.193 27.8931 106.417L12.8111 107.959C10.7309 108.171 8.94617 106.742 8.94617 104.79L8.94991 64.9579C8.94991 63.1555 10.4315 61.6591 12.2836 61.4165C12.3285 61.4277 12.3958 61.4426 12.4407 61.4576C14.3863 62.0434 16.5077 63.1406 17.7723 65.1893C18.5618 66.4693 19.0332 68.1224 18.9285 70.2682C18.9023 70.8242 18.8387 71.4138 18.7302 72.037C18.6665 72.399 18.6067 72.7721 18.5393 73.1491C18.4608 73.6193 18.3822 74.1044 18.3036 74.5932C18.1802 75.3806 18.0717 76.1867 17.9781 77.0002C17.8921 77.7801 17.8285 78.5712 17.7948 79.3549C17.7873 79.5079 17.7836 79.6609 17.7798 79.8102C17.7686 80.3028 17.7686 80.7916 17.7873 81.2767C17.7985 81.6089 17.821 81.9373 17.8472 82.2656C18.008 84.1054 18.4421 85.8556 19.3138 87.3744C19.9723 88.52 20.9601 89.3932 22.0002 90.1993C22.2733 90.412 22.5502 90.621 22.8271 90.8262C23.7699 91.5353 24.6716 92.2741 25.4723 93.1026C25.491 93.1212 25.5135 93.1436 25.5322 93.1623C25.9176 93.569 26.2842 93.9945 26.6172 94.4535C26.9876 94.961 27.2982 95.4984 27.5601 96.0618C27.6611 96.2783 27.7546 96.4985 27.8369 96.7186C27.9866 97.0993 28.1138 97.4948 28.2223 97.8941C28.2709 98.0732 28.3196 98.2561 28.3682 98.4427C28.372 98.4501 28.372 98.4576 28.372 98.4651C28.559 99.1965 28.7199 99.9652 28.8209 100.741C28.9594 101.801 28.9781 102.88 28.791 103.928Z" fill="white"/>
<path d="M17.8616 81.7024C17.8616 82.0942 17.5249 82.4264 17.1096 82.4487L12.0511 82.6988C11.6283 82.7212 11.2841 82.4152 11.2841 82.0196V80.2097C11.2841 79.8141 11.6283 79.4783 12.0511 79.4596L17.1133 79.2469C17.5287 79.2282 17.8616 79.5343 17.8616 79.9224V81.7024Z" fill="url(#paint8_linear)"/>
<path d="M26.0409 81.3143C26.0409 81.6987 25.7154 82.0271 25.3151 82.0457L20.4287 82.2846C20.0209 82.3032 19.6879 82.0047 19.6879 81.6166L19.6916 79.8366C19.6916 79.4485 20.0246 79.1163 20.4324 79.0977L25.3188 78.8924C25.7191 78.8738 26.0409 79.1723 26.0409 79.5567V81.3143Z" fill="url(#paint9_linear)"/>
<path d="M33.6769 80.9485C33.6769 81.3254 33.3626 81.6501 32.9735 81.6687L28.248 81.9001C27.8514 81.9188 27.5296 81.624 27.5334 81.2433L27.5371 79.4932C27.5371 79.1088 27.8589 78.7841 28.2555 78.7692L32.981 78.5677C33.3663 78.5528 33.6806 78.8438 33.6806 79.2245L33.6769 80.9485Z" fill="url(#paint10_linear)"/>
<path d="M41.3208 80.5867C41.3208 80.9599 41.0178 81.2733 40.6399 81.292L36.0715 81.5159C35.6899 81.5346 35.3793 81.2435 35.3793 80.8666L35.3831 79.1463C35.3831 78.7694 35.6936 78.4522 36.079 78.4335L40.6473 78.2394C41.0215 78.2245 41.3246 78.5119 41.3246 78.885L41.3208 80.5867Z" fill="url(#paint11_linear)"/>
<path d="M17.858 87.4381C17.858 87.8299 17.5213 88.1658 17.1097 88.1919L12.0512 88.5017C11.6285 88.5278 11.2842 88.2292 11.2842 87.8299V86.0201C11.2842 85.6245 11.6285 85.2849 12.0512 85.2588L17.1097 84.9826C17.525 84.9602 17.858 85.2588 17.858 85.6506V87.4381Z" fill="url(#paint12_linear)"/>
<path d="M26.0292 86.9492C26.0292 87.3336 25.7037 87.6657 25.3034 87.6881L20.4207 87.9867C20.0129 88.0128 19.6799 87.718 19.6799 87.3261L19.6837 85.5498C19.6837 85.1617 20.0167 84.8259 20.4245 84.8035L25.3071 84.5385C25.7075 84.5162 26.0292 84.811 26.0292 85.1953V86.9492Z" fill="url(#paint13_linear)"/>
<path d="M33.6657 86.494C33.6657 86.8709 33.3514 87.1956 32.9623 87.2217L28.2406 87.5128C27.844 87.5352 27.5259 87.2478 27.5259 86.8635L27.5297 85.1133C27.5297 84.7289 27.8515 84.4005 28.248 84.3819L32.9735 84.1244C33.3589 84.102 33.6732 84.3931 33.6732 84.77L33.6657 86.494Z" fill="url(#paint14_linear)"/>
<path d="M41.3058 86.0386C41.3058 86.4118 41.0028 86.729 40.6286 86.7514L36.064 87.0313C35.6824 87.0537 35.3718 86.77 35.3718 86.3931L35.3756 84.6728C35.3756 84.2959 35.6861 83.975 36.0715 83.9526L40.6361 83.7025C41.0103 83.6839 41.3133 83.9675 41.3096 84.3369L41.3058 86.0386Z" fill="url(#paint15_linear)"/>
<path d="M17.8504 93.0354C17.8504 93.4272 17.5137 93.7668 17.1021 93.7967L12.0473 94.1661C11.6246 94.196 11.2803 93.9012 11.2803 93.5056V91.6994C11.2803 91.3039 11.6246 90.9606 12.0473 90.9307L17.1021 90.5949C17.5174 90.5688 17.8504 90.8635 17.8504 91.2516V93.0354Z" fill="url(#paint16_linear)"/>
<path d="M26.0217 92.4497C26.0217 92.834 25.6962 93.1699 25.2958 93.196L20.4132 93.5542C20.0054 93.5841 19.6724 93.293 19.6724 92.9049L19.6761 91.1286C19.6761 90.7405 20.0091 90.4009 20.4169 90.3748L25.2996 90.0502C25.6999 90.024 26.0217 90.3151 26.0217 90.6957V92.4497Z" fill="url(#paint17_linear)"/>
<path d="M33.6508 91.9048C33.6508 92.2817 33.3365 92.6101 32.9511 92.64L28.2294 92.987C27.8328 93.0169 27.5148 92.7295 27.5148 92.3452L27.5185 90.5987C27.5185 90.2144 27.8403 89.886 28.2369 89.8598L32.9586 89.5464C33.344 89.5203 33.6583 89.8076 33.6583 90.1845L33.6508 91.9048Z" fill="url(#paint18_linear)"/>
<path d="M41.291 91.3563C41.291 91.7257 40.9879 92.0504 40.6138 92.0765L36.0492 92.4086C35.6675 92.4347 35.357 92.1549 35.357 91.778L35.3607 90.0614C35.3607 89.6845 35.6713 89.3598 36.0567 89.3337L40.6213 89.0314C40.9954 89.0053 41.2985 89.2889 41.2947 89.6583L41.291 91.3563Z" fill="url(#paint19_linear)"/>
<path d="M17.847 98.495C17.847 98.8868 17.5103 99.2301 17.0987 99.2637L12.0477 99.6928C11.6249 99.7302 11.2807 99.4354 11.2807 99.0435V97.2374C11.2807 96.8418 11.6249 96.4948 12.0477 96.4612L17.1025 96.0656C17.5178 96.032 17.8508 96.3231 17.8508 96.7149L17.847 98.495Z" fill="url(#paint20_linear)"/>
<path d="M26.014 97.8158C26.014 98.2002 25.6885 98.536 25.2882 98.5696L20.4093 98.9838C20.0015 99.0174 19.6685 98.7301 19.6685 98.342L19.6722 96.5657C19.6722 96.1776 20.0052 95.8343 20.413 95.8044L25.2919 95.4238C25.6923 95.3939 26.014 95.6775 26.014 96.0619V97.8158Z" fill="url(#paint21_linear)"/>
<path d="M33.6397 97.1814C33.6397 97.5583 33.3255 97.8904 32.9401 97.924L28.2221 98.3233C27.8255 98.3569 27.5074 98.0733 27.5074 97.6927L27.5112 95.9462C27.5112 95.5656 27.833 95.2297 28.2296 95.1999L32.9513 94.8304C33.3367 94.8006 33.651 95.0804 33.651 95.4574L33.6397 97.1814Z" fill="url(#paint22_linear)"/>
<path d="M17.8432 104.346C17.8432 104.734 17.5064 105.085 17.0949 105.126L12.0439 105.615C11.6211 105.656 11.2769 105.369 11.2769 104.973V103.167C11.2769 102.772 11.6211 102.421 12.0439 102.383L17.0949 101.928C17.5102 101.891 17.8432 102.178 17.8432 102.566V104.346Z" fill="url(#paint23_linear)"/>
<path d="M26.0029 103.566C26.0029 103.951 25.6774 104.29 25.2808 104.331L20.4057 104.805C19.9978 104.846 19.6649 104.563 19.6649 104.175L19.6686 102.402C19.6686 102.014 20.0016 101.671 20.4094 101.633L25.2883 101.193C25.6887 101.156 26.0104 101.439 26.0104 101.82L26.0029 103.566Z" fill="url(#paint24_linear)"/>
<path d="M33.6284 102.839C33.6284 103.216 33.3142 103.552 32.9288 103.589L28.2108 104.048C27.8142 104.085 27.4962 103.809 27.4962 103.425L27.4999 101.682C27.4999 101.301 27.8217 100.962 28.2183 100.924L32.9363 100.499C33.3216 100.465 33.6359 100.742 33.6359 101.119L33.6284 102.839Z" fill="url(#paint25_linear)"/>
<path d="M40.5837 94.2371L36.0191 94.5916C35.6375 94.6214 35.3494 95.0506 35.3494 95.4275L35.3457 96.394L35.3419 97.2001L35.3344 100.842L35.3307 101.913V102.615C35.3307 102.992 35.615 103.328 35.9967 103.29L40.5576 102.846C40.9317 102.809 41.2572 102.417 41.2572 102.048L41.2609 101.357L41.2647 100.301L41.2759 96.7037L41.2797 95.9089L41.2834 94.9536C41.2797 94.5841 40.9541 94.2072 40.5837 94.2371Z" fill="url(#paint26_linear)"/>
<path d="M18.1428 81.6912C18.1428 82.083 17.8061 82.4151 17.3945 82.4375L12.3398 82.6875C11.917 82.7099 11.5728 82.4039 11.5728 82.0084V80.1985C11.5728 79.8029 11.917 79.467 12.3398 79.4484L17.3945 79.2357C17.8098 79.217 18.1428 79.5193 18.1428 79.9111V81.6912Z" fill="#6B93EC"/>
<path d="M26.0414 81.3143C26.0414 81.6987 25.7159 82.0271 25.3156 82.0457L20.4292 82.2846C20.0213 82.3032 19.6884 82.0047 19.6884 81.6166L19.6921 79.8366C19.6921 79.4485 20.0251 79.1163 20.4329 79.0977L25.3193 78.8924C25.7196 78.8738 26.0414 79.1723 26.0414 79.5567V81.3143Z" fill="#6B93EC"/>
<path d="M33.9386 80.9374C33.9386 81.3143 33.6243 81.6352 33.239 81.6576L28.521 81.889C28.1244 81.9077 27.8063 81.6128 27.8063 81.2322L27.8101 79.482C27.8101 79.0977 28.1318 78.773 28.5284 78.7581L33.2502 78.5566C33.6356 78.5417 33.9499 78.8327 33.9499 79.2134L33.9386 80.9374Z" fill="#6B93EC"/>
<path d="M41.5762 80.5717C41.5762 80.9448 41.2731 81.2583 40.899 81.277L36.3381 81.5009C35.9565 81.5195 35.6459 81.2284 35.6459 80.8515L35.6497 79.1312C35.6497 78.7543 35.9602 78.4371 36.3456 78.4185L40.9102 78.2244C41.2844 78.2095 41.5874 78.4968 41.5837 78.87L41.5762 80.5717Z" fill="#6B93EC"/>
<path d="M18.138 87.423C18.138 87.8148 17.8012 88.1507 17.3897 88.1768L12.3387 88.4866C11.9159 88.5127 11.5717 88.2141 11.5717 87.8148V86.005C11.5717 85.6094 11.9159 85.2698 12.3387 85.2474L17.3934 84.9713C17.8087 84.9489 18.1417 85.2474 18.1417 85.6393L18.138 87.423Z" fill="#6B93EC"/>
<path d="M26.0289 86.9491C26.0289 87.3335 25.7033 87.6656 25.303 87.688L20.4204 87.9865C20.0126 88.0127 19.6796 87.7178 19.6796 87.326L19.6833 85.5497C19.6833 85.1616 20.0163 84.8258 20.4241 84.8034L25.3068 84.5384C25.7071 84.516 26.0289 84.8108 26.0289 85.1952V86.9491Z" fill="#6B93EC"/>
<path d="M33.9279 86.4788C33.9279 86.8557 33.6136 87.1803 33.2282 87.2065L28.5102 87.4938C28.1136 87.5162 27.7956 87.2288 27.7956 86.8445L27.7993 85.098C27.7993 84.7137 28.1211 84.389 28.5177 84.3666L33.2357 84.1091C33.6211 84.0867 33.9354 84.3778 33.9354 84.7547L33.9279 86.4788Z" fill="#6B93EC"/>
<path d="M41.5593 86.0235C41.5593 86.3929 41.2563 86.7139 40.8821 86.7363L36.3213 87.0161C35.9396 87.0385 35.6291 86.7549 35.6291 86.378L35.6328 84.6614C35.6328 84.2845 35.9434 83.9636 36.325 83.9412L40.8859 83.6912C41.26 83.6725 41.5631 83.9561 41.5593 84.3256V86.0235Z" fill="#6B93EC"/>
<path d="M18.1354 93.0168C18.1354 93.4086 17.7987 93.7482 17.3871 93.7781L12.3361 94.1475C11.9133 94.1774 11.5691 93.8826 11.5691 93.487V91.6809C11.5691 91.2853 11.9133 90.942 12.3361 90.9121L17.3871 90.5763C17.8024 90.5502 18.1354 90.8412 18.1354 91.2331V93.0168Z" fill="#6B93EC"/>
<path d="M26.0225 92.4496C26.0225 92.834 25.697 93.1698 25.2967 93.1959L20.414 93.5542C20.0062 93.584 19.6732 93.293 19.6732 92.9049L19.677 91.1286C19.677 90.7405 20.01 90.4009 20.4178 90.3748L25.3004 90.0501C25.7008 90.024 26.0225 90.315 26.0225 90.6957V92.4496Z" fill="#6B93EC"/>
<path d="M33.9174 91.8863C33.9174 92.2632 33.6031 92.5916 33.2177 92.6214L28.5034 92.9648C28.1068 92.9946 27.7888 92.7073 27.7888 92.3266L27.7926 90.5802C27.7926 90.1995 28.1143 89.8674 28.5109 89.8413L33.2289 89.5278C33.6143 89.5017 33.9286 89.7891 33.9249 90.166L33.9174 91.8863Z" fill="#6B93EC"/>
<path d="M41.5455 91.3377C41.5455 91.7071 41.2424 92.0318 40.8683 92.0579L36.3111 92.39C35.9295 92.4161 35.619 92.1362 35.6227 91.7593L35.6265 90.0427C35.6265 89.6658 35.937 89.3412 36.3186 89.3151L40.8795 89.0128C41.2537 88.9867 41.553 89.2703 41.553 89.6397L41.5455 91.3377Z" fill="#6B93EC"/>
<path d="M18.1276 98.4727C18.1276 98.8608 17.7909 99.2078 17.3793 99.2414L12.3321 99.6706C11.9093 99.7079 11.5651 99.4168 11.5651 99.0213V97.2151C11.5651 96.8195 11.9093 96.4725 12.3321 96.4389L17.3793 96.0471C17.7909 96.0135 18.1276 96.3046 18.1276 96.6964V98.4727Z" fill="#6B93EC"/>
<path d="M26.0147 97.8158C26.0147 98.2001 25.6892 98.536 25.2888 98.5696L20.4099 98.9838C20.0021 99.0174 19.6691 98.73 19.6691 98.3419L19.6729 96.5656C19.6729 96.1775 20.0059 95.8342 20.4137 95.8044L25.2926 95.4237C25.6929 95.3939 26.0147 95.6775 26.0147 96.0619V97.8158Z" fill="#6B93EC"/>
<path d="M33.9014 97.1591C33.9014 97.536 33.5871 97.8681 33.2017 97.9017L28.4875 98.301C28.0909 98.3346 27.7728 98.051 27.7728 97.6704L27.7766 95.9277C27.7766 95.547 28.0983 95.2112 28.4949 95.1813L33.2092 94.8156C33.5946 94.7857 33.9089 95.0656 33.9051 95.4425L33.9014 97.1591Z" fill="#6B93EC"/>
<path d="M18.1239 104.32C18.1239 104.708 17.7872 105.059 17.3756 105.097L12.3321 105.585C11.9093 105.626 11.5651 105.339 11.5651 104.944V103.141C11.5651 102.746 11.9093 102.395 12.3321 102.357L17.3793 101.902C17.7909 101.865 18.1276 102.152 18.1276 102.54L18.1239 104.32Z" fill="#6B93EC"/>
<path d="M26.0032 103.566C26.0032 103.951 25.6777 104.29 25.2811 104.331L20.4059 104.805C19.9981 104.846 19.6651 104.563 19.6651 104.175L19.6688 102.402C19.6688 102.014 20.0018 101.671 20.4097 101.633L25.2886 101.193C25.6889 101.156 26.0107 101.439 26.0107 101.82L26.0032 103.566Z" fill="#6B93EC"/>
<path d="M33.8908 102.813C33.8908 103.189 33.5765 103.525 33.1911 103.563L28.4806 104.022C28.0878 104.059 27.766 103.783 27.766 103.398L27.7697 101.656C27.7697 101.275 28.0915 100.936 28.4844 100.898L33.1949 100.473C33.5802 100.439 33.8945 100.715 33.8908 101.092V102.813Z" fill="#6B93EC"/>
<path d="M40.846 94.2149L36.2888 94.5694C35.9072 94.5993 35.6116 95.0284 35.6079 95.4053L35.6041 96.3718L35.6004 97.1779L35.5929 100.82L35.5892 101.891V102.589C35.5892 102.966 35.8847 103.302 36.2626 103.264L40.816 102.824C41.1902 102.787 41.5045 102.399 41.5082 102.025L41.5119 101.335L41.5157 100.279L41.5269 96.6853L41.5307 95.8904L41.5344 94.9389C41.5344 94.5657 41.2201 94.1851 40.846 94.2149Z" fill="#6B93EC"/>
<path d="M74.8008 107.701C74.8008 107.701 71.5607 109.172 71.5083 109.403C71.4559 109.638 73.5923 109.325 74.4641 109.358C75.3358 109.392 76.0542 109.134 75.9756 108.765C75.897 108.395 75.5902 107.47 75.5902 107.47L74.8008 107.701Z" fill="url(#paint27_linear)"/>
<path d="M74.6805 106.511L74.8788 107.966C74.8788 107.966 75.3914 108.149 75.7357 107.933L75.8816 106.336L74.6805 106.511Z" fill="url(#paint28_linear)"/>
<path d="M89.9386 106.544L90.3165 107.149C90.4213 107.317 90.4549 107.522 90.4026 107.713C90.2716 108.213 90.006 109.19 89.8937 109.448C89.7366 109.795 87.6414 110 87.6414 110C87.6414 110 87.4543 109.739 87.8883 109.422C88.3223 109.104 88.6029 109.056 88.7563 108.586C88.9097 108.119 89.0107 106.795 89.0107 106.795L89.9386 106.544Z" fill="url(#paint29_linear)"/>
<path d="M88.3669 105.011C88.5054 105.119 89.1788 107.16 89.1788 107.16C89.1788 107.16 89.3959 107.436 89.8112 107.03C90.2265 106.619 89.9982 106.847 89.9982 106.847L89.9197 104.843L88.3669 105.011Z" fill="url(#paint30_linear)"/>
<path d="M72.9002 77.284C72.728 81.624 72.7206 86.3371 72.9712 91.375C73.2518 97.0472 73.8206 102.287 74.5314 107.041C74.7971 107.048 75.074 107.052 75.3658 107.041C75.5641 107.037 75.7549 107.026 75.9382 107.015C76.3086 106.029 76.7464 104.735 77.1393 103.186C77.5508 101.559 77.8015 100.1 77.9774 98.7041C78.6022 93.7894 77.8688 93.3602 78.3777 89.7181C78.8267 86.4939 79.4627 86.367 80.211 81.7844C81.0229 76.8138 80.4168 76.0712 80.125 75.7987C78.8753 74.6531 75.9345 75.433 72.9002 77.284Z" fill="#A8C2FB"/>
<path opacity="0.3" d="M80.125 75.7987C78.9314 74.7053 76.2002 75.3659 73.3192 77.0377C76.6379 80.6127 76.9971 82.9301 76.6005 84.4339C76.1515 86.1356 74.7859 86.6245 74.7896 88.4829C74.7971 90.7667 76.8624 91.375 76.8212 93.7894C76.7913 95.3866 75.8821 95.3716 75.6689 97.3457C75.4144 99.6818 76.6005 100.488 76.2189 102.216C76.0542 102.958 75.5828 103.932 74.2359 104.932C74.3332 105.641 74.4304 106.347 74.5352 107.033C74.8008 107.041 75.0777 107.044 75.3696 107.033C75.5678 107.03 75.7587 107.018 75.942 107.007C76.3124 106.022 76.7502 104.727 77.143 103.178C77.5546 101.551 77.8053 100.092 77.9811 98.6966C78.6059 93.7819 77.8726 93.3528 78.3814 89.7106C78.8304 86.4864 79.4665 86.3595 80.2148 81.777C81.0267 76.8138 80.4206 76.0674 80.125 75.7987Z" fill="#A8C2FB"/>
<path d="M74.9539 77.2095C77.8087 81.3778 80.8917 86.5649 83.6454 92.7745C85.7257 97.4653 87.2372 101.872 88.3447 105.798C88.4944 105.869 88.8498 106.007 89.3025 105.947C89.9199 105.865 90.2903 105.474 90.3838 105.365C90.8366 102.552 90.7842 100.167 90.6308 98.4467C90.5335 97.3458 90.3576 95.5098 89.6542 93.2447C88.8648 90.7071 88.3223 90.5653 87.2934 87.8822C86.227 85.0983 86.4852 84.4005 85.46 80.9151C85.041 79.4821 84.3376 77.3513 83.1777 74.8025C80.4389 75.6048 77.6964 76.4071 74.9539 77.2095Z" fill="#A8C2FB"/>
<path d="M61.4435 47.5384C61.4435 47.5384 60.8897 46.8779 60.5343 46.3853C60.1826 45.8927 58.5513 44.5194 58.5513 44.5194C58.5513 44.5194 58.4353 44.7433 58.787 45.0941C59.1387 45.4449 59.8758 46.0382 59.7149 46.3032C59.554 46.5644 59.0901 46.8032 59.438 47.2846C59.786 47.766 60.3659 47.419 60.6765 47.8033C60.987 48.1877 61.3013 48.6094 61.3013 48.6094L61.4435 47.5384Z" fill="#81A4EF"/>
<path d="M61.5218 46.8444C61.1514 47.3071 60.781 47.7698 60.4106 48.2326C60.882 50.2738 61.8922 53.3488 64.2344 56.3341C66.7187 59.4986 72.0167 64.2417 75.3167 62.6855C77.3258 61.7377 80.0422 58.4873 79.0656 56.92C78.1265 55.4124 74.0708 56.1252 71.2833 55.4982C68.5558 54.8862 65.0089 52.901 61.5218 46.8444Z" fill="#5B86E5"/>
<path d="M86.9901 58.8792C86.9901 58.8792 89.1526 66.2157 87.8132 69.0407C86.4737 71.8618 82.2047 68.7645 82.2047 68.7645L86.9901 58.8792Z" fill="#8AA8EB"/>
<path d="M80.2664 56.1661C77.4902 56.1176 75.3538 56.2072 74.1715 57.4349C72.9219 58.7336 74.2426 60.1442 74.0406 63.4766C73.7263 68.5816 70.5011 69.8952 70.3664 75.0711C70.3215 76.8138 70.647 78.2318 70.8977 79.0827C71.6311 79.9559 72.8283 81.1799 74.5756 82.1912C77.1198 83.6615 78.5715 83.363 82.197 84.2698C88.131 85.7513 88.696 87.6582 91.6106 87.1059C94.5552 86.5461 97.0956 84.0123 96.7514 82.6539C96.5456 81.8404 95.3596 82.0979 93.9603 80.8851C92.1569 79.3215 92.8041 77.7728 91.4235 76.0786C89.4368 73.6455 86.7803 75.2166 85.0892 73.1082C83.3756 70.9736 83.9443 66.6821 85.295 64.32C86.178 62.7788 86.5297 60.9838 87.278 59.3717C87.3416 59.2374 87.4089 59.0172 87.3715 58.7485C87.2218 57.7111 85.4708 57.1849 84.1463 56.8005C82.1259 56.2109 80.4946 56.1699 80.2664 56.1661Z" fill="#5B86E5"/>
<path d="M77.5654 56.1102L78.1079 55.931C78.1079 55.931 78.2688 56.6662 80.0273 56.7222C81.0038 56.6998 81.6211 56.14 81.6211 56.14L81.999 56.405C81.999 56.405 81.2021 57.4461 79.8963 57.4461C78.2201 57.4498 77.5654 56.1102 77.5654 56.1102Z" fill="#CCDCFF"/>
<path d="M78.0102 53.7367C77.8605 52.9307 78.3132 52.2403 78.4142 52.091C78.8295 51.4678 78.9306 51.3857 79.1102 51.2887L79.3608 51.1656C79.3608 51.1656 79.3758 51.1618 79.3908 51.1581C79.5479 51.1171 80.0642 51.1506 80.169 51.1805C80.4983 51.2813 80.7302 52.6732 80.4496 54.5838C80.4646 54.7331 80.4758 54.8824 80.4908 55.0354C81.2353 54.9309 81.4523 55.0018 81.4897 55.1026C81.5721 55.319 81.052 56.5803 80.3411 56.8303C79.4506 57.1401 78.2085 56.3303 78.1336 56.0355C78.1037 55.9161 78.1074 56.0206 78.7173 55.6698C78.7734 55.4944 78.9455 55.0167 79.0017 54.8413C78.8707 54.7555 78.1224 54.3264 78.0102 53.7367Z" fill="#81A4EF"/>
<path d="M105.458 44.6015C101.836 42.5565 95.8501 45.3591 93.1375 48.8034C91.8766 50.4043 91.4651 51.9493 89.5981 52.6695C88.1801 53.2143 85.7032 53.4121 83.9896 52.2366C83.7726 52.0874 82.8971 51.4604 81.6437 50.7141C81.0899 50.3857 80.5512 50.0834 79.8964 50.1842C79.7318 50.2103 79.178 50.2924 78.9386 50.7439C78.744 51.1096 78.8301 51.6097 79.0246 51.9269C79.1406 52.1172 79.2117 52.1172 79.2454 52.2553C79.3427 52.6434 78.7029 53.0278 78.8039 53.2069C78.875 53.3338 79.2192 53.1696 79.3352 53.3188C79.4624 53.483 79.1219 53.7741 79.1032 54.3003C78.8525 54.6137 78.8226 55.2071 78.9835 55.9385C79.2154 57.0095 79.5933 57.823 79.9974 58.394C81.9355 61.1517 83.3236 63.1258 85.3665 63.8199C88.0678 64.7417 89.5494 62.6146 95.0195 60.5957C102.51 57.8342 105.23 59.7934 107.393 57.1625C110.09 53.8786 109.215 46.7211 105.458 44.6015Z" fill="#26264F"/>
<g opacity="0.3">
<path opacity="0.3" d="M89.5266 82.7249C86.7354 80.874 84.2062 82.9899 82.2344 81.3628C80.6106 80.0194 81.9426 78.2692 80.1841 75.9071C78.2572 73.3172 75.5783 73.9778 74.9423 72.0447C74.2838 70.0445 76.929 68.6862 76.9926 65.906C77.0263 64.488 76.3865 62.6408 73.8385 60.4279C73.977 61.2376 74.1154 62.2228 74.0406 63.4804C73.7263 68.5854 70.5011 69.899 70.3664 75.0749C70.3215 76.8176 70.647 78.2356 70.8977 79.0865C71.6311 79.9597 72.8283 81.1837 74.5756 82.195C77.1198 83.6653 78.5715 83.3668 82.197 84.2736C88.131 85.7551 88.696 87.662 91.6106 87.1097C92.4599 86.9492 93.2756 86.6246 93.9977 86.2103C93.1483 86.0797 92.516 85.7924 92.0334 85.4565C90.7575 84.5721 90.982 83.6877 89.5266 82.7249Z" fill="#364056"/>
</g>
<path d="M26.9654 47.0793C26.9654 52.3896 22.8011 56.5654 17.4807 56.4049C11.9433 56.237 7.28516 51.4641 7.28516 45.7583C7.28516 40.0488 11.9433 35.9065 17.4807 36.4812C22.8011 37.0335 26.9654 41.7691 26.9654 47.0793Z" fill="url(#paint31_linear)"/>
<path d="M28.4018 46.6241C28.4018 51.9343 24.2376 56.1101 18.9172 55.9496C13.3798 55.7817 8.72162 51.0089 8.72162 45.303C8.72162 39.5972 13.3798 35.4513 18.9172 36.026C24.2376 36.5745 28.4018 41.3138 28.4018 46.6241Z" fill="url(#paint32_linear)"/>
<path d="M27.9832 46.5942C27.9832 51.6693 23.9985 55.6585 18.9176 55.4943C13.6383 55.3227 9.20465 50.77 9.20465 45.3328C9.20465 39.8957 13.6383 35.9363 18.9176 36.4774C24.0022 36.9962 27.9832 41.519 27.9832 46.5942Z" fill="url(#paint33_linear)"/>
<path d="M27.684 46.5756C27.684 51.4828 23.8303 55.334 18.9177 55.1698C13.8218 54.9981 9.54529 50.6022 9.54529 45.3554C9.54529 40.1085 13.8181 36.2873 18.9177 36.8022C23.8303 37.2986 27.684 41.6647 27.684 46.5756Z" fill="url(#paint34_linear)"/>
<path d="M18.8686 38.4704C19.1305 38.4965 19.3401 38.7316 19.3401 38.9966V39.8996C19.8639 39.9593 20.3877 40.0489 20.9115 40.1721C21.2969 40.2616 21.6822 40.3698 22.0639 40.4967C22.2921 40.5713 22.4492 40.8027 22.423 41.0378L22.3108 42.1723C22.2809 42.4745 21.9816 42.6499 21.7009 42.523C21.4503 42.4111 21.1921 42.3141 20.9265 42.2357C20.4663 42.0976 19.9799 42.0043 19.4673 41.9633L19.3326 41.9521V44.5419C20.6982 44.9225 21.6972 45.4338 22.3445 46.0794C22.988 46.7212 23.3098 47.5198 23.3098 48.4789C23.3098 49.5163 22.9543 50.3447 22.2435 50.9717C21.5288 51.6023 20.5224 51.9568 19.2241 52.0315V53.0278C19.2241 53.2928 19.0108 53.498 18.7489 53.4906H18.7414C18.4795 53.4794 18.2663 53.2555 18.2663 52.9905V52.0054L18.0567 51.9942C17.4469 51.968 16.8632 51.9046 16.3095 51.8076C15.8979 51.7367 15.4938 51.6434 15.101 51.5314C14.8615 51.4643 14.7006 51.2366 14.7231 50.9941L14.854 49.5387C14.884 49.2252 15.1982 49.0386 15.5013 49.158C15.853 49.2961 16.2047 49.4118 16.5639 49.5051C17.1214 49.6506 17.6901 49.7477 18.2625 49.7887L18.27 46.9078C16.9605 46.5832 15.9802 46.1055 15.3367 45.4711C14.6894 44.833 14.3639 44.0195 14.3639 43.0268C14.3639 42.0006 14.7156 41.2095 15.419 40.6534C16.1149 40.1012 17.1101 39.825 18.3897 39.825V38.8995C18.3935 38.642 18.6067 38.448 18.8686 38.4704ZM18.3935 41.926C17.9894 41.9558 17.6751 42.0678 17.4469 42.2581C17.2224 42.4521 17.1064 42.7096 17.1064 43.0343C17.1064 43.344 17.2112 43.6015 17.4207 43.8068C17.6302 44.012 17.952 44.1762 18.3935 44.2993V41.926ZM19.2316 47.1392V49.7812C19.6731 49.7812 20.0098 49.6768 20.2455 49.4678C20.4812 49.2588 20.5972 48.9603 20.5972 48.5796C20.5972 48.2288 20.4887 47.9415 20.268 47.7101C20.0509 47.4788 19.7067 47.2885 19.2316 47.1392Z" fill="url(#paint35_linear)"/>
<path opacity="0.3" d="M17.3313 47.7772C17.6269 44.859 20.317 43.6238 19.9653 40.9407C19.7483 39.2876 18.4912 37.8919 17.0881 36.8022C12.8378 37.2463 9.54529 40.7616 9.54529 45.3554C9.54529 50.6022 13.8181 54.9981 18.9177 55.1698C19.4116 55.1847 19.8942 55.1623 20.3657 55.0989C18.3415 53.0912 17.0769 50.285 17.3313 47.7772Z" fill="url(#paint36_linear)"/>
<defs>
<linearGradient id="paint0_linear" x1="17.1395" y1="58.5342" x2="90.7542" y2="58.5342" gradientUnits="userSpaceOnUse">
<stop stop-color="#444B8C"/>
<stop offset="0.9964" stop-color="#26264F"/>
</linearGradient>
<linearGradient id="paint1_linear" x1="38.3635" y1="13.5623" x2="75.1845" y2="13.5623" gradientUnits="userSpaceOnUse">
<stop stop-color="#444B8C"/>
<stop offset="0.9964" stop-color="#26264F"/>
</linearGradient>
<linearGradient id="paint2_linear" x1="8.95314" y1="68.1376" x2="43.1472" y2="68.1376" gradientUnits="userSpaceOnUse">
<stop stop-color="#AA80F9"/>
<stop offset="0.9964" stop-color="#6165D7"/>
</linearGradient>
<linearGradient id="paint3_linear" x1="8.95343" y1="73.4448" x2="43.1278" y2="73.4448" gradientUnits="userSpaceOnUse">
<stop stop-color="#AA80F9"/>
<stop offset="0.9964" stop-color="#6165D7"/>
</linearGradient>
<linearGradient id="paint4_linear" x1="36.7354" y1="68.3242" x2="36.2519" y2="79.3763" gradientUnits="userSpaceOnUse">
<stop stop-color="#311944"/>
<stop offset="1" stop-color="#A03976"/>
</linearGradient>
<linearGradient id="paint5_linear" x1="39.3309" y1="68.0851" x2="38.8147" y2="79.8846" gradientUnits="userSpaceOnUse">
<stop stop-color="#311944"/>
<stop offset="1" stop-color="#A03976"/>
</linearGradient>
<linearGradient id="paint6_linear" x1="39.6876" y1="66.0783" x2="30.2089" y2="65.6615" gradientUnits="userSpaceOnUse">
<stop stop-color="#311944"/>
<stop offset="1" stop-color="#A03976"/>
</linearGradient>
<linearGradient id="paint7_linear" x1="39.7493" y1="71.5905" x2="29.5491" y2="71.1419" gradientUnits="userSpaceOnUse">
<stop stop-color="#311944"/>
<stop offset="1" stop-color="#A03976"/>
</linearGradient>
<linearGradient id="paint8_linear" x1="43.8797" y1="64.6927" x2="-10.0549" y2="94.7743" gradientUnits="userSpaceOnUse">
<stop stop-color="#444B8C"/>
<stop offset="0.9964" stop-color="#3E4177"/>
</linearGradient>
<linearGradient id="paint9_linear" x1="45.0363" y1="68.273" x2="-7.20675" y2="97.4113" gradientUnits="userSpaceOnUse">
<stop stop-color="#444B8C"/>
<stop offset="0.9964" stop-color="#3E4177"/>
</linearGradient>
<linearGradient id="paint10_linear" x1="46.0855" y1="71.6316" x2="-4.60299" y2="99.9031" gradientUnits="userSpaceOnUse">
<stop stop-color="#444B8C"/>
<stop offset="0.9964" stop-color="#3E4177"/>
</linearGradient>
<linearGradient id="paint11_linear" x1="47.5157" y1="74.7826" x2="-1.64125" y2="102.2" gradientUnits="userSpaceOnUse">
<stop stop-color="#444B8C"/>
<stop offset="0.9964" stop-color="#3E4177"/>
</linearGradient>
<linearGradient id="paint12_linear" x1="46.6149" y1="68.9501" x2="-7.58306" y2="99.1787" gradientUnits="userSpaceOnUse">
<stop stop-color="#444B8C"/>
<stop offset="0.9964" stop-color="#3E4177"/>
</linearGradient>
<linearGradient id="paint13_linear" x1="47.6504" y1="72.4945" x2="-4.84731" y2="101.775" gradientUnits="userSpaceOnUse">
<stop stop-color="#444B8C"/>
<stop offset="0.9964" stop-color="#3E4177"/>
</linearGradient>
<linearGradient id="paint14_linear" x1="48.5891" y1="75.8193" x2="-2.34641" y2="104.228" gradientUnits="userSpaceOnUse">
<stop stop-color="#444B8C"/>
<stop offset="0.9964" stop-color="#3E4177"/>
</linearGradient>
<linearGradient id="paint15_linear" x1="49.9112" y1="78.9341" x2="0.514982" y2="106.484" gradientUnits="userSpaceOnUse">
<stop stop-color="#444B8C"/>
<stop offset="0.9964" stop-color="#3E4177"/>
</linearGradient>
<linearGradient id="paint16_linear" x1="49.371" y1="73.0558" x2="-5.08361" y2="103.428" gradientUnits="userSpaceOnUse">
<stop stop-color="#444B8C"/>
<stop offset="0.9964" stop-color="#3E4177"/>
</linearGradient>
<linearGradient id="paint17_linear" x1="50.2865" y1="76.5667" x2="-2.45998" y2="105.986" gradientUnits="userSpaceOnUse">
<stop stop-color="#444B8C"/>
<stop offset="0.9964" stop-color="#3E4177"/>
</linearGradient>
<linearGradient id="paint18_linear" x1="51.1141" y1="79.8598" x2="-0.0621568" y2="108.403" gradientUnits="userSpaceOnUse">
<stop stop-color="#444B8C"/>
<stop offset="0.9964" stop-color="#3E4177"/>
</linearGradient>
<linearGradient id="paint19_linear" x1="52.3283" y1="82.9413" x2="2.69918" y2="110.622" gradientUnits="userSpaceOnUse">
<stop stop-color="#444B8C"/>
<stop offset="0.9964" stop-color="#3E4177"/>
</linearGradient>
<linearGradient id="paint20_linear" x1="52.1478" y1="77.0109" x2="-2.55721" y2="107.523" gradientUnits="userSpaceOnUse">
<stop stop-color="#444B8C"/>
<stop offset="0.9964" stop-color="#3E4177"/>
</linearGradient>
<linearGradient id="paint21_linear" x1="52.9426" y1="80.491" x2="-0.0458482" y2="110.045" gradientUnits="userSpaceOnUse">
<stop stop-color="#444B8C"/>
<stop offset="0.9964" stop-color="#3E4177"/>
</linearGradient>
<linearGradient id="paint22_linear" x1="53.6599" y1="83.7545" x2="2.24893" y2="112.429" gradientUnits="userSpaceOnUse">
<stop stop-color="#444B8C"/>
<stop offset="0.9964" stop-color="#3E4177"/>
</linearGradient>
<linearGradient id="paint23_linear" x1="54.961" y1="81.3418" x2="-0.0122533" y2="112.003" gradientUnits="userSpaceOnUse">
<stop stop-color="#444B8C"/>
<stop offset="0.9964" stop-color="#3E4177"/>
</linearGradient>
<linearGradient id="paint24_linear" x1="55.6325" y1="84.7861" x2="2.38444" y2="114.485" gradientUnits="userSpaceOnUse">
<stop stop-color="#444B8C"/>
<stop offset="0.9964" stop-color="#3E4177"/>
</linearGradient>
<linearGradient id="paint25_linear" x1="56.2354" y1="88.0156" x2="4.57291" y2="116.83" gradientUnits="userSpaceOnUse">
<stop stop-color="#444B8C"/>
<stop offset="0.9964" stop-color="#3E4177"/>
</linearGradient>
<linearGradient id="paint26_linear" x1="55.8595" y1="88.9717" x2="6.18648" y2="116.677" gradientUnits="userSpaceOnUse">
<stop stop-color="#444B8C"/>
<stop offset="0.9964" stop-color="#3E4177"/>
</linearGradient>
<linearGradient id="paint27_linear" x1="73.2309" y1="102.607" x2="74.0315" y2="112.822" gradientUnits="userSpaceOnUse">
<stop offset="0.003597" stop-color="#26264F"/>
<stop offset="1" stop-color="#444B8C"/>
</linearGradient>
<linearGradient id="paint28_linear" x1="75.3079" y1="108.294" x2="75.1624" y2="97.714" gradientUnits="userSpaceOnUse">
<stop stop-color="#AB316D"/>
<stop offset="1" stop-color="#792D3D"/>
</linearGradient>
<linearGradient id="paint29_linear" x1="88.4383" y1="101.415" x2="89.2389" y2="111.631" gradientUnits="userSpaceOnUse">
<stop offset="0.003597" stop-color="#26264F"/>
<stop offset="1" stop-color="#444B8C"/>
</linearGradient>
<linearGradient id="paint30_linear" x1="89.2451" y1="108.102" x2="89.0995" y2="97.522" gradientUnits="userSpaceOnUse">
<stop stop-color="#AB316D"/>
<stop offset="1" stop-color="#792D3D"/>
</linearGradient>
<linearGradient id="paint31_linear" x1="13.7523" y1="47.4962" x2="2.28164" y2="51.1871" gradientUnits="userSpaceOnUse">
<stop stop-color="#FCB148"/>
<stop offset="0.0520724" stop-color="#FDBA46"/>
<stop offset="0.1424" stop-color="#FFC244"/>
<stop offset="0.3183" stop-color="#FFC444"/>
<stop offset="0.4849" stop-color="#FDB946"/>
<stop offset="0.7754" stop-color="#F99C4D"/>
<stop offset="0.8658" stop-color="#F8924F"/>
<stop offset="1" stop-color="#F8924F"/>
</linearGradient>
<linearGradient id="paint32_linear" x1="23.0357" y1="36.1025" x2="12.8347" y2="58.6666" gradientUnits="userSpaceOnUse">
<stop stop-color="#FFDB44"/>
<stop offset="1" stop-color="#FEEF06"/>
</linearGradient>
<linearGradient id="paint33_linear" x1="21.1514" y1="59.9065" x2="19.1845" y2="49.1334" gradientUnits="userSpaceOnUse">
<stop stop-color="#FCB148"/>
<stop offset="0.0520724" stop-color="#FDBA46"/>
<stop offset="0.1424" stop-color="#FFC244"/>
<stop offset="0.3183" stop-color="#FFC444"/>
<stop offset="0.4849" stop-color="#FDB946"/>
<stop offset="0.7754" stop-color="#F99C4D"/>
<stop offset="0.8658" stop-color="#F8924F"/>
<stop offset="1" stop-color="#F8924F"/>
</linearGradient>
<linearGradient id="paint34_linear" x1="16.9603" y1="42.4721" x2="25.0724" y2="59.7376" gradientUnits="userSpaceOnUse">
<stop stop-color="#FCB148"/>
<stop offset="0.0520724" stop-color="#FDBA46"/>
<stop offset="0.1424" stop-color="#FFC244"/>
<stop offset="0.3183" stop-color="#FFC444"/>
<stop offset="0.4849" stop-color="#FDB946"/>
<stop offset="0.7754" stop-color="#F99C4D"/>
<stop offset="0.8658" stop-color="#F8924F"/>
<stop offset="1" stop-color="#F8924F"/>
</linearGradient>
<linearGradient id="paint35_linear" x1="16.6353" y1="38.7604" x2="20.7119" y2="54.0787" gradientUnits="userSpaceOnUse">
<stop stop-color="#FFDB44"/>
<stop offset="1" stop-color="#FEEF06"/>
</linearGradient>
<linearGradient id="paint36_linear" x1="14.5635" y1="43.5884" x2="22.6592" y2="60.819" gradientUnits="userSpaceOnUse">
<stop stop-color="#FCB148"/>
<stop offset="0.0520724" stop-color="#FDBA46"/>
<stop offset="0.1424" stop-color="#FFC244"/>
<stop offset="0.3183" stop-color="#FFC444"/>
<stop offset="0.4849" stop-color="#FDB946"/>
<stop offset="0.7754" stop-color="#F99C4D"/>
<stop offset="0.8658" stop-color="#F8924F"/>
<stop offset="1" stop-color="#F8924F"/>
</linearGradient>
</defs>
</svg>
