<svg width="22" height="22" viewBox="0 0 22 22" fill="none" xmlns="http://www.w3.org/2000/svg">
<g clip-path="url(#clip0)">
<path d="M1.37504 1.49694C-0.353793 3.29269 4.02406e-05 5.20027 4.02406e-05 10.9954C4.02406e-05 15.8079 -0.839626 20.6324 3.55487 21.7681C4.92712 22.121 17.0858 22.121 18.4562 21.7663C20.2859 21.2942 21.7745 19.8101 21.978 17.2224C22.0065 16.8612 22.0065 5.13611 21.9771 4.7676C21.7608 2.01119 20.064 0.422605 17.8283 0.100856C17.3159 0.0266055 17.2132 0.00460551 14.5842 2.21804e-05C5.25896 0.00460551 3.21479 -0.410645 1.37504 1.49694Z" fill="url(#paint0_linear)"/>
<path d="M10.9981 2.87698C7.66972 2.87698 4.50906 2.5809 3.30181 5.67923C2.80314 6.9589 2.87556 8.62081 2.87556 11.0005C2.87556 13.0886 2.80864 15.0512 3.30181 16.3208C4.50631 19.421 7.69264 19.124 10.9963 19.124C14.1836 19.124 17.4698 19.4558 18.6917 16.3208C19.1913 15.0283 19.118 13.3911 19.118 11.0005C19.118 7.82698 19.2931 5.77823 17.754 4.24006C16.1956 2.68173 14.0882 2.87698 10.9945 2.87698H10.9981ZM10.2703 4.3409C17.2131 4.3299 18.0968 3.55806 17.6091 14.2803C17.4359 18.0726 14.5484 17.6564 10.9991 17.6564C4.52739 17.6564 4.34131 17.4712 4.34131 10.9968C4.34131 4.44723 4.85464 4.34456 10.2703 4.33906V4.3409ZM15.334 5.68931C14.7959 5.68931 14.3596 6.12565 14.3596 6.66373C14.3596 7.20181 14.7959 7.63815 15.334 7.63815C15.8721 7.63815 16.3084 7.20181 16.3084 6.66373C16.3084 6.12565 15.8721 5.68931 15.334 5.68931ZM10.9981 6.82873C8.69456 6.82873 6.82731 8.6969 6.82731 11.0005C6.82731 13.3041 8.69456 15.1713 10.9981 15.1713C13.3017 15.1713 15.1681 13.3041 15.1681 11.0005C15.1681 8.6969 13.3017 6.82873 10.9981 6.82873ZM10.9981 8.29265C14.5777 8.29265 14.5823 13.7083 10.9981 13.7083C7.41947 13.7083 7.41397 8.29265 10.9981 8.29265Z" fill="white"/>
</g>
<defs>
<linearGradient id="paint0_linear" x1="1.41723" y1="20.5949" x2="21.8639" y2="2.8985" gradientUnits="userSpaceOnUse">
<stop stop-color="#FFDD55"/>
<stop offset="0.5" stop-color="#FF543E"/>
<stop offset="1" stop-color="#C837AB"/>
</linearGradient>
<clipPath id="clip0">
<rect width="22" height="22" fill="white"/>
</clipPath>
</defs>
</svg>
