<svg width="18" height="18" viewBox="0 0 18 18" fill="none" xmlns="http://www.w3.org/2000/svg">
<rect width="18" height="18" rx="3" fill="#2C2130"/>
<mask id="mask0" mask-type="alpha" maskUnits="userSpaceOnUse" x="0" y="0" width="17" height="17">
<path d="M16.1822 3.11836C15.4653 6.04025 13.8522 9.17541 10.7062 9.03857C5.46909 8.81077 0.231931 8.58296 0.00748211 15.6686V16.65C-0.00256569 16.3082 -0.00242212 15.9813 0.00748211 15.6686V3C0.00748211 1.34314 1.35063 0 3.00748 0H13.4923C15.2095 0 16.5914 1.45065 16.1822 3.11836Z" fill="black"/>
</mask>
<g mask="url(#mask0)">
<rect width="18" height="18" rx="3" fill="#524158"/>
</g>
<g clip-path="url(#clip0)">
<path d="M7.05158 9.24776C5.98107 9.24776 5.11623 10.1126 5.13205 11.1726C5.1426 11.8528 5.51701 12.4435 6.06808 12.7731C5.88088 12.4856 5.77014 12.1455 5.76486 11.779C5.74904 10.719 6.61389 9.8542 7.68439 9.8542C7.89533 9.8542 8.09836 9.88848 8.2882 9.94912V7.82656C8.09045 7.79756 7.88742 7.78174 7.68439 7.78174C7.67385 7.78174 7.66594 7.78174 7.65539 7.78174V9.34268C7.46555 9.28203 7.26252 9.24776 7.05158 9.24776Z" fill="#F00044"/>
<path d="M11.6795 2.88281H11.6637H11.1152C11.2734 3.67646 11.719 4.36729 12.3413 4.83662C11.9326 4.29609 11.6848 3.62109 11.6795 2.88281Z" fill="#F00044"/>
<path d="M14.9066 6.1127C14.6983 6.1127 14.4979 6.0916 14.3002 6.05469V7.57607C13.583 7.57607 12.8869 7.43633 12.233 7.15684C11.8111 6.97754 11.4183 6.74814 11.057 6.47129L11.0676 11.162C11.0623 12.2167 10.6457 13.2055 9.8916 13.9517C9.27725 14.5581 8.49941 14.9457 7.65566 15.0696C7.45791 15.0986 7.25488 15.1145 7.05186 15.1145C6.1501 15.1145 5.29053 14.8218 4.5918 14.2812C4.6709 14.3762 4.75527 14.4685 4.84756 14.5581C5.60693 15.3069 6.61416 15.7209 7.6873 15.7209C7.89033 15.7209 8.09336 15.7051 8.29111 15.6761C9.13486 15.5521 9.91269 15.1646 10.5271 14.5581C11.2812 13.8119 11.6978 12.8231 11.703 11.7685L11.6635 7.07773C12.0221 7.35459 12.4149 7.58662 12.8395 7.76328C13.496 8.04014 14.1921 8.18252 14.9066 8.18252" fill="#F00044"/>
<path d="M4.83966 8.9498C5.59113 8.20361 6.59044 7.78965 7.65568 7.78174V7.22012C7.45792 7.19111 7.2549 7.17529 7.05187 7.17529C5.97609 7.17529 4.96622 7.58926 4.20685 8.34336C3.46066 9.08428 3.03351 10.0968 3.03614 11.1488C3.03614 12.2088 3.45538 13.2028 4.21212 13.9543C4.33341 14.0729 4.45734 14.1837 4.58917 14.2839C3.99327 13.5746 3.66896 12.6887 3.66632 11.7553C3.66896 10.7032 4.09347 9.69072 4.83966 8.9498Z" fill="#08FFF9"/>
<path d="M14.3002 6.05483V5.49057H14.2949C13.5619 5.49057 12.8869 5.248 12.3438 4.83667C12.8157 5.45893 13.5065 5.9019 14.3002 6.05483Z" fill="#08FFF9"/>
<path d="M7.57656 13.6459C7.82705 13.6591 8.06699 13.6248 8.28848 13.5536C9.05313 13.3031 9.6042 12.5912 9.6042 11.7527L9.60684 8.61504V2.88281H11.115C11.0755 2.68506 11.0544 2.48467 11.0518 2.27637H8.97403V8.00596L8.97139 11.1437C8.97139 11.9821 8.42032 12.694 7.65567 12.9445C7.43418 13.0184 7.19424 13.0526 6.94375 13.0368C6.62471 13.0184 6.32676 12.9234 6.06836 12.7705C6.39268 13.2715 6.94639 13.6116 7.57656 13.6459Z" fill="#08FFF9"/>
<path d="M7.65568 15.0697C8.49943 14.9458 9.27726 14.5582 9.89162 13.9518C10.6457 13.2056 11.0623 12.2168 11.0676 11.1621L11.057 6.47139C11.4156 6.74824 11.8085 6.98027 12.233 7.15693C12.8896 7.43379 13.5857 7.57617 14.3002 7.57617V6.05479C13.5066 5.90186 12.8157 5.45889 12.3438 4.83662C11.7215 4.36729 11.2733 3.67646 11.1177 2.88281H9.60685V8.6124L9.60421 11.7501C9.60421 12.5886 9.05314 13.3005 8.28849 13.551C8.06701 13.6248 7.82707 13.6591 7.57658 13.6433C6.94376 13.609 6.39269 13.2688 6.06837 12.7705C5.5173 12.4436 5.14288 11.8503 5.13234 11.17C5.11652 10.1101 5.98136 9.24521 7.05187 9.24521C7.26281 9.24521 7.46583 9.27949 7.65568 9.34014V7.7792C6.59044 7.78711 5.59113 8.20107 4.83966 8.94727C4.09347 9.68818 3.66632 10.7007 3.66896 11.7501C3.66896 12.6835 3.99327 13.5694 4.59181 14.2787C5.29318 14.8192 6.15011 15.1119 7.05187 15.1119C7.2549 15.1146 7.45792 15.0987 7.65568 15.0697Z" fill="white"/>
</g>
<defs>
<clipPath id="clip0">
<rect x="2.25" y="2.25" width="13.5" height="13.5" rx="3" fill="white"/>
</clipPath>
</defs>
</svg>
